<svg viewBox="0 0 16 16" xmlns="http://www.w3.org/2000/svg"><path d="m6.7792969 2.3398438c-.5483467.121903-1.0910534.2928543-1.5996094.5488281.0116313.4490586.0407575.879355.0996094 1.3164062-.1974997.1265332-.4053743.2346877-.5898438.3828125-.1874309.1441941-.3791122.2805797-.5488281.4492188-.3390553-.2242598-.6967138-.4331096-1.0664062-.6191406-.3984992.4288673-.7717921.8902246-1.0761719 1.4082031.2289984.370446.4684344.7193034.7265625 1.0488281h.00586c.0002494 1.3248347-.0004319 2.801343 0 4.035156 0 1.850832 2.3485764 2.73977 5.265625 2.75h.0039056.00391c2.917049-.01023 5.263672-.899168 5.263672-2.75.0023-1.3026239 0-2.6976969 0-4.035156h.0078c.25819-.3295247.497465-.6783821.726571-1.0488281-.304272-.5179785-.677673-.9793358-1.076172-1.4082031-.369584.186031-.729304.3948808-1.068359.6191406-.169663-.1686391-.359175-.3050247-.546875-.4492188-.184416-.1481248-.392721-.2562793-.589844-.3828125.05869-.4370512.087925-.8673476.099609-1.3164062-.50861-.2559738-1.0509928-.4269251-1.5996089-.5488281-.2190372.3681313-.4192953.7665275-.59375 1.15625-.2068669-.0345679-.41494-.0463514-.6230469-.0488282h-.0039062-.0039062c-.2084834.0024875-.4161247.0142586-.6230469.0488282-.1743466-.3897225-.3743898-.7881187-.59375-1.15625zm-1.5410157 5.3167774c.6487118 0 1.1738282.5253317 1.1738282 1.1738281 0 .648927-.5251164 1.1757817-1.1738282 1.1757817-.6483887 0-1.1757816-.5268547-1.1757812-1.1757817 0-.6484964.5273925-1.1738281 1.1757812-1.1738281zm5.5234378 0c.648334 0 1.175781.5253317 1.175781 1.1738281 0 .648927-.527447 1.1757817-1.175781 1.1757817-.64882 0-1.1738284-.5268547-1.1738284-1.1757817 0-.6484964.5250084-1.1738281 1.1738284-1.1738281zm-2.761719 1.5730612c.2088067 0 .3789054.1542193.3789062.34375v1.0800786c0 .189691-.1700995.34375-.3789062.34375s-.3769531-.154059-.3769531-.34375v-1.0800786c0-.1895307.1681464-.34375.3769531-.34375z" fill="#209ae7" transform="matrix(1.00000002137 0 0 1.00000002137 -.00000031006 .00000022684)"/></svg>