<svg version="1.1" viewBox="0 0 32 32" xmlns="http://www.w3.org/2000/svg" xmlns:xlink="http://www.w3.org/1999/xlink">
    <defs>
        <radialGradient id="d" cx="20.571428" cy="8.5" r="4" gradientTransform="matrix(3.7417788,-6.8149882e-8,2.7200184e-8,1.5,-60.947427,-4.7499983)" gradientUnits="userSpaceOnUse">
            <stop stop-color="#4f575f" stop-opacity=".25098041" offset="0"/>
            <stop stop-color="#8a939a" offset="1"/>
        </radialGradient>
        <linearGradient id="l" x1="390.57101" x2="410.57101" y1="521.79797" y2="545.79797" gradientTransform="matrix(1 0 0 .91666666 -384.571 -471.31484)" gradientUnits="userSpaceOnUse">
            <stop stop-color="#bdc3c7" offset="0"/>
            <stop stop-color="#8a9696" offset="1"/>
        </linearGradient>
    </defs>
    <linearGradient id="a">
        <stop stop-color="#4f575f" stop-opacity=".4" offset="0"/>
        <stop stop-color="#4f575f" stop-opacity=".6" offset=".5"/>
        <stop stop-color="#4f575f" stop-opacity=".4" offset="1"/>
    </linearGradient>
    <radialGradient id="t" cx="16" cy="8.5" r="4" gradientTransform="matrix(1.75,0,0,1.5,-12,-6.75)" gradientUnits="userSpaceOnUse">
        <stop stop-color="#4f575f" stop-opacity=".25" offset="0"/>
        <stop stop-color="#9da5ab" offset="1"/>
    </radialGradient>
    <linearGradient id="s" x1="412.571" x2="412.571" y1="522.798" y2="520.798" gradientTransform="translate(-384.571,-514.798)" gradientUnits="userSpaceOnUse">
        <stop stop-color="#9da5ab" offset="0"/>
        <stop stop-color="#bdc3c7" offset="1"/>
    </linearGradient>
    <linearGradient id="r" x1="395.571" x2="395.571" y1="520.798" y2="516.798" gradientTransform="translate(-384.571,-514.798)" gradientUnits="userSpaceOnUse">
        <stop stop-color="#afb0b3" offset="0"/>
        <stop stop-color="#bdc3c7" offset="1"/>
    </linearGradient>
    <linearGradient id="q" x1="390.57101" x2="406.57101" y1="521.79797" y2="537.79797" gradientTransform="matrix(1 0 0 .95454545 -384.571 -490.07991)" gradientUnits="userSpaceOnUse">
        <stop stop-color="#292c2f" offset="0"/>
        <stop stop-opacity="0" offset="1"/>
    </linearGradient>
    <linearGradient id="p" x1="391.571" x2="394.571" y1="534.798" y2="534.798" gradientTransform="matrix(.66667 0 0 .9 -249.047 -463.31817)" gradientUnits="userSpaceOnUse" xlink:href="#a"/>
    <linearGradient id="o" x1="391.571" x2="394.571" y1="534.798" y2="534.798" gradientTransform="matrix(.66667 0 0 .89999994 -254.048 -463.31813)" gradientUnits="userSpaceOnUse" xlink:href="#a"/>
    <linearGradient id="n" x1="391.571" x2="394.571" y1="534.798" y2="534.798" gradientTransform="matrix(.66667 0 0 .9 -243.048 -463.31817)" gradientUnits="userSpaceOnUse" xlink:href="#a"/>
    <linearGradient id="m" x1="391.571" x2="394.571" y1="534.798" y2="534.798" gradientTransform="matrix(.66667 0 0 .9 -238.047 -463.31817)" gradientUnits="userSpaceOnUse" xlink:href="#a"/>
    <path d="M 6,7 V 28.083334 C 6,28.591166 6.446,29 7,29 h 18 c 0.554,0 1,-0.408834 1,-0.916666 V 7 Z" fill="url(#l)" stroke-width=".95742708"/>
    <path d="m12 3c-0.554 0-1 0.446-1 1v2h2v-0.75a0.25 0.25 0 0 1 0.233-0.25h5.535a0.25 0.25 0 0 1 0.232 0.25v0.75h2v-2c0-0.554-0.446-1-1-1z" fill="url(#r)"/>
    <path d="m12.5 4c-0.277 0-0.5 0.223-0.5 0.5v1.5h1v-0.75a0.25 0.25 0 0 1 0.233-0.25h5.535a0.25 0.25 0 0 1 0.232 0.25v0.75h1v-1.5c0-0.277-0.223-0.5-0.5-0.5z" fill="url(#t)"/>
    <path d="m5 6c-0.554 0-1 0.446-1 1v1h24v-1c0-0.554-0.446-1-1-1z" fill="url(#s)"/>
    <g stroke-width=".94868326">
        <path d="m13.00001 9c0.554 0 1 0.4014 1 0.9v16.2c0 0.4986-0.446 0.9-1 0.9s-1-0.4014-1-0.9v-16.2c0-0.4986 0.446-0.9 1-0.9z" fill="url(#p)"/>
        <path d="m8.00001 9c0.554 0 1 0.4014 1 0.9v16.2c0 0.4986-0.446 0.9-1 0.9s-1-0.4014-1-0.9v-16.2c0-0.4986 0.446-0.9 1-0.9z" fill="url(#o)"/>
        <path d="m19.00001 9c0.554 0 1 0.4014 1 0.9v16.2c0 0.4986-0.446 0.9-1 0.9s-1-0.4014-1-0.9v-16.2c0-0.4986 0.446-0.9 1-0.9z" fill="url(#n)"/>
        <path d="m24.00001 9c0.554 0 1 0.4014 1 0.9v16.2c0 0.4986-0.446 0.9-1 0.9s-1-0.4014-1-0.9v-16.2c0-0.4986 0.446-0.9 1-0.9z" fill="url(#m)"/>
    </g>
    <path d="M 6,8 V 9.909091 L 26,29 V 8 Z" fill="url(#q)" opacity=".2" stroke-width=".9770084"/>
    <path d="m4 8h24v-1h-23.947382z" fill="url(#d)" stroke-width=".99890316"/>
    <path d="m6 27v1c0 0.554 0.446 1 1 1h18c0.554 0 1-0.446 1-1v-1c0 0.554-0.446 1-1 1h-18c-0.554 0-1-0.446-1-1z" opacity=".2"/>
</svg>
