<?xml version="1.0" encoding="UTF-8" standalone="no"?>
<svg
   xmlns:dc="http://purl.org/dc/elements/1.1/"
   xmlns:cc="http://creativecommons.org/ns#"
   xmlns:rdf="http://www.w3.org/1999/02/22-rdf-syntax-ns#"
   xmlns:svg="http://www.w3.org/2000/svg"
   xmlns="http://www.w3.org/2000/svg"
   xmlns:xlink="http://www.w3.org/1999/xlink"
   xmlns:sodipodi="http://sodipodi.sourceforge.net/DTD/sodipodi-0.dtd"
   xmlns:inkscape="http://www.inkscape.org/namespaces/inkscape"
   width="64"
   version="1.1"
   viewBox="0 0 64 64"
   height="64"
   id="svg2"
   inkscape:version="0.91 r13725"
   sodipodi:docname="kuiviewer.svgz">
  <sodipodi:namedview
     pagecolor="#ffffff"
     bordercolor="#666666"
     borderopacity="1"
     objecttolerance="10"
     gridtolerance="10"
     guidetolerance="10"
     inkscape:pageopacity="0"
     inkscape:pageshadow="2"
     inkscape:window-width="1920"
     inkscape:window-height="1141"
     id="namedview24"
     showgrid="true"
     inkscape:zoom="8.48"
     inkscape:cx="3.1219521"
     inkscape:cy="33.030316"
     inkscape:window-x="0"
     inkscape:window-y="0"
     inkscape:window-maximized="1"
     inkscape:current-layer="svg2">
    <inkscape:grid
       type="xygrid"
       id="grid4244" />
  </sodipodi:namedview>
  <defs
     id="defs4">
    <linearGradient
       inkscape:collect="always"
       id="linearGradient4303-1">
      <stop
         style="stop-color:#bfc1c1;stop-opacity:1"
         offset="0"
         id="stop4305-2" />
      <stop
         style="stop-color:#f1f2f3;stop-opacity:1"
         offset="1"
         id="stop4307-2" />
    </linearGradient>
    <linearGradient
       inkscape:collect="always"
       xlink:href="#linearGradient4303-1"
       id="linearGradient4287"
       gradientUnits="userSpaceOnUse"
       x1="479.84732"
       y1="794.41791"
       x2="479.84732"
       y2="-564.64087"
       gradientTransform="matrix(0.06786065,0,0,0.06786065,0.29256012,25.951419)" />
  </defs>
  <metadata
     id="metadata84">
    <rdf:RDF>
      <cc:Work
         rdf:about="">
        <dc:format>image/svg+xml</dc:format>
        <dc:type
           rdf:resource="http://purl.org/dc/dcmitype/StillImage" />
        <dc:title></dc:title>
      </cc:Work>
    </rdf:RDF>
  </metadata>
  <path
     style="fill:url(#linearGradient4287);fill-opacity:1"
     id="path5"
     d="m 4.4456317,49.128412 c 0.3325177,1.140059 0.7939702,2.239402 1.3775713,3.270883 l -1.6625853,2.096896 c -0.5428854,0.685391 -0.4818105,1.662585 0.1289394,2.280116 l 2.8637196,2.86372 c 0.6175318,0.617534 1.5947255,0.671753 2.2801188,0.128863 l 2.0833215,-1.649013 c 1.072198,0.6176 2.212258,1.099343 3.399819,1.438646 l 0.31216,2.680496 c 0.101796,0.868616 0.834686,1.520079 1.703302,1.520079 l 4.051281,0 c 0.868616,0 1.60151,-0.651531 1.703303,-1.520079 l 0.298586,-2.585491 c 1.275779,-0.332517 2.497272,-0.827901 3.644117,-1.472576 l 2.015461,1.594725 c 0.685393,0.542885 1.662587,0.48181 2.280119,-0.128939 l 2.86372,-2.86372 c 0.617532,-0.617532 0.67182,-1.594726 0.12894,-2.280119 l -1.567582,-1.988316 c 0.651463,-1.126555 1.160417,-2.327621 1.499721,-3.583044 l 2.415838,-0.278229 c 0.868686,-0.101797 1.52008,-0.834686 1.52008,-1.703303 l 0,-4.05128 c 0,-0.868617 -0.651462,-1.601513 -1.52008,-1.703303 l -2.381916,-0.278218 c -0.3258,-1.241852 -0.814328,-2.429414 -1.438579,-3.542327 l 1.465791,-1.852597 c 0.542884,-0.685393 0.481809,-1.662585 -0.12894,-2.280118 l -2.856935,-2.856933 c -0.617532,-0.617532 -1.594725,-0.671822 -2.280116,-0.12894 l -1.798309,1.425073 c -1.167199,-0.685388 -2.415903,-1.207914 -3.725545,-1.56079 l -0.271444,-2.327621 c -0.101796,-0.868616 -0.834685,-1.520078 -1.703302,-1.520078 l -4.051281,0 c -0.868616,0 -1.601512,0.651462 -1.703302,1.520078 l -0.271443,2.327621 c -1.34364,0.359662 -2.626206,0.902546 -3.820555,1.615084 L 9.4334579,30.256296 C 8.7480664,29.713409 7.7708727,29.774485 7.1533411,30.385235 l -2.8637197,2.86372 C 3.672088,33.866487 3.6177996,34.84368 4.1606819,35.529073 l 1.5607963,1.974745 c -0.6243183,1.126487 -1.0993438,2.327622 -1.411502,3.576256 l -2.4972729,0.285015 c -0.8686165,0.101797 -1.52007896,0.834687 -1.52007896,1.703303 l 0,4.051281 c 0,0.868617 0.65146246,1.601511 1.52007896,1.703302 l 2.6329254,0.305441 z M 19.123891,38.168916 c 3.691621,0 6.697848,3.006226 6.697848,6.697846 0,3.69162 -3.006227,6.697848 -6.697848,6.697848 -3.691552,0 -6.697846,-3.006228 -6.697846,-6.697848 0,-3.69162 3.006228,-6.697846 6.697846,-6.697846 z"
     inkscape:connector-curvature="0" />
  <path
     style="fill:#ffe680;fill-opacity:1"
     id="path7"
     d="M 54.123897,2.3312304 50.985803,0.97875178 C 50.019333,0.5615463 48.894623,0.9371261 48.374158,1.8483747 l -0.98822,1.7112514 C 46.049326,3.3498899 44.691744,3.3283832 43.344915,3.4854938 L 42.379358,1.699624 C 41.882918,0.77618798 40.76398,0.37055624 39.788455,0.75287739 L 36.612632,2.0186977 C 35.639666,2.408893 35.102074,3.463916 35.375705,4.4808746 l 0.52329,1.9545758 C 34.782738,7.2674836 33.78844,8.2444219 32.945345,9.348737 L 30.963797,8.7542374 c -1.009239,-0.3003143 -2.079458,0.1973179 -2.49656,1.1638413 l -1.347671,3.1539563 c -0.417262,0.966571 -0.04171,2.091205 0.869486,2.611774 l 1.9101,1.101068 c -0.158358,1.277819 -0.157012,2.567937 0.0047,3.843917 L 27.969,21.674325 c -0.923435,0.49644 -1.329066,1.615377 -0.946769,2.590823 l 1.265819,3.175825 c 0.390217,0.972956 1.445218,1.510557 2.462178,1.236925 l 2.250456,-0.604325 c 0.726872,0.940193 1.563606,1.786542 2.492103,2.535617 l -0.675374,2.257309 c -0.30036,1.00908 0.197297,2.07938 1.163762,2.496585 l 3.138094,1.352478 c 0.966628,0.417161 2.09118,0.04163 2.611805,-0.869667 l 1.169906,-2.026146 c 1.222272,0.175111 2.461518,0.206506 3.686888,0.07755 l 1.130232,2.099698 c 0.496443,0.923437 1.615379,1.329069 2.590744,0.946795 l 3.175825,-1.265818 c 0.972962,-0.390197 1.510581,-1.445138 1.236926,-2.462176 l -0.592254,-2.210901 c 1.062341,-0.781046 2.015465,-1.693538 2.840563,-2.714367 l 2.161262,0.643951 c 1.009081,0.300362 2.079301,-0.197271 2.496563,-1.16384 l 1.352479,-3.138094 c 0.417104,-0.966524 0.04154,-2.091157 -0.869643,-2.611726 l -1.918029,-1.098663 c 0.190085,-1.287437 0.218164,-2.59505 0.0698,-3.883905 l 1.860332,-1.005621 c 0.923436,-0.496441 1.329066,-1.615378 0.946769,-2.590822 L 61.803615,10.265977 C 61.413399,9.2930206 60.358399,8.7554191 59.341441,9.0290506 L 57.331319,9.5691 C 56.567743,8.5361101 55.680734,7.6099049 54.682957,6.8037123 L 55.274232,4.8403794 C 55.590584,3.8266237 55.090524,2.7483937 54.123899,2.331234 Z M 47.550488,24.901521 c -3.430335,1.369039 -7.335648,-0.313899 -8.696574,-3.746611 -1.369042,-3.430339 0.314003,-7.335594 3.74661,-8.696575 3.43036,-1.368961 7.335673,0.313978 8.696598,3.746689 1.369065,3.430416 -0.314002,7.335593 -3.746634,8.696497 z"
     inkscape:connector-curvature="0" />
</svg>
