<svg viewBox="0 0 48 48" xmlns="http://www.w3.org/2000/svg">
    <linearGradient id="a" x2="0" y1="541.79797" y2="499.78421" gradientTransform="matrix(.69229859 0 0 .69207328 120.25629 150.83367)" gradientUnits="userSpaceOnUse">
        <stop stop-color="#3daee9" offset="0"/>
        <stop stop-color="#6cc1ef" offset="1"/>
    </linearGradient>
    <g transform="translate(-384.57144 -483.798)">
        <g stroke-width=".692299">
            <path d="m389.57144 489.79806v10.99994h38l-1e-5 -8h-19l-3-3-15.99999-1.8e-4z" fill="#147eb8"/>
            <path d="m404.57143 496.798-3 3h-13l1e-5 26.00047 39.99999-4.7e-4v-29z" fill="url(#a)"/>
            <g fill-opacity=".235294" fill-rule="evenodd">
                <path d="m388.57143 499.798v1h14l2-4-3 3z" fill="#fff"/>
                <path d="m389.56364 498.79794.0156 1.00006h11.99217l3-3-4 2z"/>
            </g>
        </g>
        <path d="m388.57144 524.79776v.9998c-.00001.00045 39.99999 0 39.99999 0v-.9998z" fill-opacity=".235294" stroke-width=".830373"/>
        <path d="m405.57143 489.798 2 4h20v-1h-19z" fill="#fff" fill-opacity=".235294" fill-rule="evenodd" stroke-width=".692299"/>
        <path d="m407.07143 505.798c-1.385 0-2.5 1.115-2.5 2.5s1.115 2.5 2.5 2.5 2.5-1.115 2.5-2.5-1.115-2.5-2.5-2.5zm0 1c0.831 0 1.5 0.669 1.5 1.5s-0.669 1.5-1.5 1.5-1.5-0.669-1.5-1.5 0.669-1.5 1.5-1.5zm5.5 1c-1.108 0-2 0.892-2 2s0.892 2 2 2 2-0.892 2-2-0.892-2-2-2zm0 1c0.554 0 1 0.446 1 1s-0.446 1-1 1-1-0.446-1-1 0.446-1 1-1zm-5.5 3c-2.49299 0-4.5 2.00701-4.5 4.5v1.5h9.00001v-1.5c0-2.49299-2.00701-4.5-4.50001-4.5zm0 1c1.93899 0 3.5 1.56101 3.5 3.5v0.5h-7v-0.5c0-1.93899 1.56101-3.5 3.5-3.5zm5.5 0c-0.55473 0-1.06689 0.15951-1.51172 0.41992 0.24314 0.23688 0.46541 0.49507 0.65625 0.77735 0.26011-0.12335 0.54745-0.19727 0.85547-0.19727 1.108 0 2 0.892 2 2h-2.09961c0.0651 0.32308 0.0996 0.65717 0.0996 1h3v-1c0-1.662-1.338-3-3-3z" fill="#1272a5"/>
    </g>
</svg>
