<svg width="48" height="48" viewBox="0 0 48 48" fill="none" xmlns="http://www.w3.org/2000/svg">
<path d="M4 9C4 6.23858 6.23858 4 9 4H39C41.7614 4 44 6.23858 44 9V39C44 41.7614 41.7614 44 39 44H9C6.23858 44 4 41.7614 4 39V9Z" fill="url(#paint0_linear)"/>
<path fill-rule="evenodd" clip-rule="evenodd" d="M4 38V39C4 41.7614 6.23858 44 9 44H39C41.7614 44 44 41.7614 44 39V38C44 40.7614 41.7614 43 39 43H9C6.23858 43 4 40.7614 4 38Z" fill="black" fill-opacity="0.3"/>
<path d="M32.5 11L13 30.7618L26.1057 44H44V43.0868V22.5516L32.5 11Z" fill="url(#paint1_linear)"/>
<path d="M36.3326 19.8709C36.3326 16.5941 35.0047 13.6271 32.8576 11.479C30.7091 9.3296 27.7405 8 24.4612 8C17.9078 8 12.5949 13.3102 12.5903 19.8632L12.5898 29.0493C12.5914 29.7642 12.8765 30.4491 13.3826 30.9539C13.8887 31.4587 14.5744 31.7421 15.2892 31.7419H24.4658C31.0201 31.7391 36.3326 26.4257 36.3326 19.8709Z" fill="#294172"/>
<path d="M27.9468 10.814C24.8697 10.814 22.3751 13.3085 22.3751 16.3856V19.3386H19.4344C16.3569 19.3386 13.8628 21.8204 13.8628 24.8975C13.8628 27.9751 16.3569 30.4696 19.4344 30.4696C22.5115 30.4696 25.0061 27.9751 25.0061 24.8975V21.9326H27.9468C31.0239 21.9326 33.5184 19.4627 33.5184 16.3856C33.5184 13.3085 31.0239 10.814 27.9468 10.814V10.814ZM22.3751 24.9025C22.3738 25.6816 22.0634 26.4283 21.5121 26.9788C20.9608 27.5293 20.2135 27.8385 19.4344 27.8387C17.8103 27.8387 16.4814 26.522 16.4814 24.898C16.4814 23.2739 17.8103 21.9326 19.4344 21.9326H21.96C22.0701 21.9326 22.1757 21.9764 22.2535 22.0542C22.3314 22.1321 22.3751 22.2377 22.3751 22.3478V22.3482V24.9025ZM27.9468 19.3386H25.4212C25.3111 19.3386 25.2055 19.2949 25.1277 19.217C25.0498 19.1392 25.0061 19.0336 25.0061 18.9235V16.3806C25.0073 15.6015 25.3176 14.8548 25.8688 14.3043C26.4201 13.7538 27.1673 13.4446 27.9463 13.4444C29.5709 13.4444 30.8998 14.7611 30.8998 16.3856C30.8998 18.0097 29.5709 19.3386 27.9468 19.3386Z" fill="#3C6EB4"/>
<path d="M22.3757 19.3386V16.3856C22.3757 13.3085 24.8698 10.814 27.9469 10.814C28.414 10.814 28.7452 10.8664 29.1777 10.9796C29.8082 11.1447 30.3228 11.6607 30.3228 12.262C30.3228 12.9882 29.7959 13.5165 29.008 13.5165C28.6325 13.5165 28.4966 13.4444 27.9469 13.4444C27.1677 13.4444 26.4204 13.7536 25.8691 14.3041C25.3177 14.8547 25.0074 15.6015 25.0062 16.3806V18.923C25.0062 19.1525 25.1918 19.3382 25.4213 19.3382H27.3538C27.5246 19.3375 27.6938 19.3705 27.8517 19.4354C28.0097 19.5003 28.1532 19.5958 28.2741 19.7164C28.395 19.8369 28.4909 19.9802 28.5563 20.138C28.6216 20.2957 28.6551 20.4649 28.6549 20.6356C28.6552 20.8064 28.6217 20.9755 28.5564 21.1333C28.4911 21.291 28.3952 21.4343 28.2742 21.5549C28.1533 21.6754 28.0097 21.7709 27.8518 21.8357C27.6938 21.9005 27.5246 21.9335 27.3538 21.9326H25.0062V24.898C25.0062 27.9751 22.5116 30.4696 19.4345 30.4696C18.9678 30.4696 18.6362 30.4167 18.2037 30.304C17.5741 30.1389 17.0586 29.6224 17.0586 29.0216C17.0586 28.2953 17.586 27.767 18.3738 27.767C18.7488 27.767 18.8848 27.8387 19.4345 27.8387C21.0568 27.8387 22.3725 26.5248 22.3757 24.9025V22.3478C22.3757 22.2932 22.3649 22.2392 22.344 22.1888C22.3231 22.1384 22.2925 22.0926 22.2539 22.054C22.2153 22.0155 22.1695 21.9849 22.1191 21.9641C22.0687 21.9433 22.0146 21.9326 21.9601 21.9326H20.028C19.8573 21.9335 19.6882 21.9007 19.5302 21.8359C19.3723 21.7711 19.2287 21.6758 19.1078 21.5553C18.9869 21.4349 18.8909 21.2917 18.8256 21.134C18.7602 20.9763 18.7267 20.8072 18.7269 20.6365C18.7265 19.9103 19.3141 19.3386 20.0417 19.3386H22.3752H22.3757Z" fill="white"/>
<path d="M8 38C8 36.8954 8.71634 36 9.6 36H38.4C39.2837 36 40 36.8954 40 38C40 39.1046 39.2837 40 38.4 40H9.6C8.71634 40 8 39.1046 8 38Z" fill="#152940" fill-opacity="0.2"/>
<path d="M38.4 35.5H9.6C8.34185 35.5 7.5 36.7292 7.5 38C7.5 39.2708 8.34185 40.5 9.6 40.5H38.4C39.6581 40.5 40.5 39.2708 40.5 38C40.5 36.7292 39.6581 35.5 38.4 35.5Z" stroke="black" stroke-opacity="0.02"/>
<path d="M8 38C8 36.8954 8.74619 36 9.66667 36H26.3333C27.2538 36 28 36.8954 28 38C28 39.1046 27.2538 40 26.3333 40H9.66667C9.2058 40 8.78862 39.7755 8.48692 39.4127C8.18604 39.0509 8 38.5515 8 38Z" fill="url(#paint2_linear)"/>
<defs>
<linearGradient id="paint0_linear" x1="4" y1="4" x2="44" y2="44" gradientUnits="userSpaceOnUse">
<stop stop-color="white"/>
<stop offset="1" stop-color="#EFF0F1"/>
</linearGradient>
<linearGradient id="paint1_linear" x1="13.26" y1="11.1229" x2="44.327" y2="43.6881" gradientUnits="userSpaceOnUse">
<stop offset="0.046875" stop-color="#00022F" stop-opacity="0.4"/>
<stop offset="0.630208" stop-color="#00022F" stop-opacity="0"/>
</linearGradient>
<linearGradient id="paint2_linear" x1="18" y1="36" x2="18" y2="40" gradientUnits="userSpaceOnUse">
<stop stop-color="#5DC6FF"/>
<stop offset="1" stop-color="#3DAEE9"/>
</linearGradient>
</defs>
</svg>
