<!DOCTYPE svg>
<svg viewBox="0 0 16 16" version="1.1" xmlns="http://www.w3.org/2000/svg">
    <defs>
        <style type="text/css" id="current-color-scheme">
            .ColorScheme-Text {
                color:#eff0f1;
            }
        </style>
    </defs>
    <path class="ColorScheme-Text" style="fill:currentColor; fill-opacity:1; stroke:none" d="M 3 2 L 3 14 L 13 14 L 13 5 L 10 2 L 3 2 Z M 4 3 L 5 3 L 5 11 L 4 11 L 4 3 Z M 6 3 L 9 3 L 9 6 L 12 6 L 12 11 L 6 11 L 6 3 Z M 9 6 L 7 8 L 9 10 L 9 6 Z M 4 12 L 5 12 L 5 13 L 4 13 L 4 12 Z M 6 12 L 12 12 L 12 13 L 6 13 L 6 12 Z"/>
</svg>
