<!DOCTYPE svg>
<svg viewBox="0 0 16 16" version="1.1" xmlns="http://www.w3.org/2000/svg">
    <defs>
        <style type="text/css" id="current-color-scheme">
            .ColorScheme-Text {
                color:#eff0f1;
            }
        </style>
    </defs>
    <path class="ColorScheme-Text" style="fill:currentColor; fill-opacity:1; stroke:none" d="M 2 2 L 2 2.75 L 2 13 L 3 13 L 4 13 L 5 13 L 5 14 L 7 14 L 7 13 L 6 13 L 6 5 L 11 5 L 11 6 L 13 6 L 13 5 L 10 2 L 2.78516 2 L 2 2 Z M 3 3 L 9 3 L 9 4 L 5 4 L 5 5 L 5 12 L 4 12 L 3 12 L 3 3 Z M 10.5 7 C 8.567 7 7 8.567 7 10.5 C 7 12.433 8.567 14 10.5 14 C 12.433 14 14 12.433 14 10.5 C 14 8.567 12.433 7 10.5 7 Z M 10.5 8 C 11.8807 8 13 9.11929 13 10.5 C 13 11.8807 11.8807 13 10.5 13 C 9.11929 13 8 11.8807 8 10.5 C 8 9.11929 9.11929 8 10.5 8 Z M 10 9 L 10 12 L 11 12 L 12 12 L 12 11 L 11 11 L 11 9 L 10 9 Z"/>
</svg>
