<svg height="16" width="16" xmlns="http://www.w3.org/2000/svg" xmlns:xlink="http://www.w3.org/1999/xlink"><linearGradient id="a" gradientTransform="matrix(.27299641 0 0 .27592872 239.47143 299.0053)" gradientUnits="userSpaceOnUse" x2="0" y1="785.71002" y2="727.71002"><stop offset="0" stop-color="#f39c12"/><stop offset="1" stop-color="#f5ab35"/></linearGradient><linearGradient id="b" gradientTransform="matrix(.6 0 0 .6 147.628 194.72)" gradientUnits="userSpaceOnUse" x2="0" y1="531.79999" y2="515.79999"><stop offset="0" stop-color="#f7bb5d"/><stop offset="1" stop-color="#fce3bc"/></linearGradient><linearGradient id="c" gradientUnits="userSpaceOnUse" x1="4" x2="14.000008" y1="5" y2="14.999988"><stop offset="0" stop-color="#383e51"/><stop offset="1" stop-color="#655c6f" stop-opacity="0"/></linearGradient><g transform="translate(-384.57 -499.8)"><path d="m386.56186 499.8s.008 16 0 16.00376l12.00814-.00376v-10.5l-5.5-5.5z" fill="url(#a)" stroke-width=".387536"/><path d="m386.57001 514.79999h11.999992v1h-11.999992z" fill="#2e3132" fill-opacity=".294" stroke-width=".612372"/><path d="m398.57 503.8v-4h-4z" fill="#b97c1b"/><path d="m12 5v3l-3-.5-2-2-2.5 2.5 1 1-1.5 4 2 2h8v-8z" fill="url(#c)" fill-rule="evenodd" opacity=".2" transform="translate(384.57 499.8)"/><path d="m393.57 504.8v3h3v-3zm-5 4v4h3v-4zm6.5 0-2.5 4h5zm-3.19999-2.50001c0 .99411-.80589 1.8-1.8 1.8s-1.8-.80589-1.8-1.8.80589-1.8 1.8-1.8 1.8.80589 1.8 1.8z" fill="url(#b)" stroke-opacity=".55" stroke-width="1.68"/></g></svg>