<svg height="16" width="16" xmlns="http://www.w3.org/2000/svg" xmlns:xlink="http://www.w3.org/1999/xlink"><linearGradient id="a" gradientTransform="matrix(.72727 0 0 .68966 .727 1.931)" gradientUnits="userSpaceOnUse" x2="0" y1="785.71002" y2="727.71002"><stop offset="0" stop-color="#f27935"/><stop offset="1" stop-color="#f2784b"/></linearGradient><linearGradient id="b" gradientUnits="userSpaceOnUse" x1="388.57001" x2="398.57001" y1="504.799992" y2="514.799992"><stop offset="0" stop-color="#383e51"/><stop offset="1" stop-color="#655c6f" stop-opacity="0"/></linearGradient><linearGradient id="c" gradientTransform="translate(-13.999994 -17.999996)" gradientUnits="userSpaceOnUse" x2="0" y1="531.79999" y2="515.79999"><stop offset="0" stop-color="#f5955f"/><stop offset="1" stop-color="#facebe"/></linearGradient><g transform="translate(-384.57001 -499.79999)"><path d="m386.57 499.8v16h12v-10.50001l-5.49999-5.49999z" fill="url(#a)"/><path d="m386.57001 514.79999h11.999995v1.000014h-11.999995z" fill="#2e3132" fill-opacity=".294"/><path d="m398.57 503.8v-4h-4z" fill="#b86333"/><path d="m388.57 504.8v6l1 1v1l2 2h7v-8l-2-2z" fill="url(#b)" fill-rule="evenodd" opacity=".2"/><path d="m388.57 504.8v6h3v1h-2v1h6v-1h-2v-1h3v-6zm1 1h6v4h-6z" fill="url(#c)"/></g></svg>