<svg viewBox="0 0 16 16" xmlns="http://www.w3.org/2000/svg">
    <linearGradient id="a" x1="8.00005" x2="8.00005" y1="24" y2="-44.418" gradientUnits="userSpaceOnUse">
        <stop stop-color="#da4453" offset="0"/>
        <stop stop-color="#fcfcfc" offset="1"/>
    </linearGradient>
    <linearGradient id="b" x1="37.707" x2="37.707" y1="-372.4" y2="-315.339" gradientUnits="userSpaceOnUse">
        <stop stop-color="#da4453" offset="0"/>
        <stop stop-color="#da4453" stop-opacity=".075221" offset="1"/>
    </linearGradient>
    <linearGradient id="c" x1="4.87374" x2="4.87374" y1="5.52774" y2="12.8614" gradientUnits="userSpaceOnUse">
        <stop stop-color="#da4453" offset="0"/>
        <stop stop-color="#da4453" stop-opacity="0" offset="1"/>
    </linearGradient>
    <path d="m0 2c0-1.104569.895431-2 2-2h12c1.1046 0 2 .895431 2 2v12c0 1.1046-.8954 2-2 2h-12c-1.104569 0-2-.8954-2-2z" fill="#34495e"/>
    <path d="m0 1.875c0-1.035534.895431-1.875 2-1.875h12c1.1046 0 2 .839466 2 1.875v11.25c0 1.0355-.8954 1.875-2 1.875h-12c-1.104569 0-2-.8395-2-1.875z" fill="url(#a)"/>
    <path d="m2 0c-1.104569 0-2 .895431-2 2v6h16v-6c0-1.104569-.8954-2-2-2z" clip-rule="evenodd" fill="url(#b)" fill-rule="evenodd"/>
    <path d="m5.84996 2.15-1.85225 3.15-1.14775-1.14998-1.7 5.7 5.99568 6.14998h6.85436c1.1046 0 2-.8954 2-2v-8.7l-1.15-1.14998-1.15-.146085-1.85-1.85387-1.85 3.146935-1.15-1.147-1.14688-.15z" fill="url(#c)"/>
    <path d="m2.5 4h-.99999c-.27614 0-.5.22386-.5.5l-.00001 4.99999c0 .27614.22386.5.5.5l1 .00001c.27614 0 .5-.22386.5-.5v-5c0-.27614-.22386-.5-.5-.5zm2.99994-2h-.99999c-.27614 0-.5.22386-.5.5l-.00001 9c0 .2761.22385.5.49999.5h1c.27615 0 .50001-.2239.50001-.5v-9c0-.27614-.22386-.5-.5-.5zm3.00006 2h-.99999c-.27614 0-.5.22386-.5.5l-.00001 9c0 .2761.22386.5.5.5h1c.27614 0 .5-.2239.5-.5v-9c0-.27614-.22386-.5-.5-.5zm3-2h-1c-.2761 0-.5.22386-.5.5v9c0 .2761.2239.5.5.5h1c.2761 0 .5-.2239.5-.5v-9c0-.27614-.2239-.5-.5-.5zm2.9999 2h-.9999c-.2762 0-.5.22386-.5.5l-.0001 4.99999c0 .27614.2239.5.5.5l1 .00001c.2762 0 .5-.22386.5-.5v-5c0-.27614-.2238-.5-.5-.5z" fill="#da4453"/>
    <path d="m2.5 4h-.99999c-.27614 0-.5.22386-.5.5l-.00001 3.99999c0 .27614.22386.5.5.5l1 .00001c.27614 0 .5-.22386.5-.5v-4c0-.27614-.22386-.5-.5-.5zm3-2h-.99999c-.27614 0-.5.22386-.5.5l-.00001 8c0 .2761.22386.5.5.5h1c.27614 0 .5-.2239.5-.5v-8c0-.27614-.22386-.5-.5-.5zm3 2h-.99999c-.27614 0-.5.22386-.5.5l-.00001 8c0 .2761.22386.5.5.5h1c.27614 0 .5-.2239.5-.5v-8c0-.27614-.22386-.5-.5-.5zm3-2h-1c-.2761 0-.5.22386-.5.5v8c0 .2761.2239.5.5.5h1c.2761 0 .5-.2239.5-.5v-8c0-.27614-.2239-.5-.5-.5zm3 2h-1c-.2761 0-.5.22386-.5.5v3.99999c0 .27614.2239.5.5.5l1 .00001c.2761 0 .5-.22386.5-.5v-4c0-.27614-.2239-.5-.5-.5z" fill="#fcfcfc"/>
</svg>
