<!-- Created with Inkscape (http://www.inkscape.org/) -->
<svg xmlns="http://www.w3.org/2000/svg" xmlns:inkscape="http://www.inkscape.org/namespaces/inkscape" width="24" version="1.1" height="24" viewBox="0 0 24 24">
  <defs id="defs3871"/>
  <metadata id="metadata3874"/>
  <g transform="translate(1,1)">
    <g inkscape:label="Capa 1" inkscape:groupmode="layer" id="layer1" transform="matrix(1 0 0 1 -326 -534.3622)">
      <path inkscape:connector-curvature="0" style="fill:#f4a93c;stroke-linecap:square;stroke-width:2" id="rect4153" d="m 329,537.3622 0,16 16,0 0,-16 -16,0 z m 1,1 14,0 0,2 -14,0 0,-2 z m 0,3 1,0 0,2 -1,0 0,-2 z m 2,0 1,0 0,2 -1,0 0,-2 z m 2,0 1,0 0,2 -1,0 0,-2 z m 2,0 1,0 0,2 -1,0 0,-2 z m 2,0 1,0 0,2 -1,0 0,-2 z m 2,0 1,0 0,2 -1,0 0,-2 z m 2,0 2,0 0,1 -2,0 0,-1 z m -12,3 14,0 0,2 -14,0 0,-2 z m 0,3 1,0 0,2 -1,0 0,-2 z m 2,0 1,0 0,2 -1,0 0,-2 z m 2,0 1,0 0,2 -1,0 0,-2 z m 2,0 1,0 0,2 -1,0 0,-2 z m 2,0 1,0 0,2 -1,0 0,-2 z m 2,0 1,0 0,2 -1,0 0,-2 z m 2,0 2,0 0,1 -2,0 0,-1 z m -12,3 12,0 2,0 0,2 -14,0 0,-2 z"/>
    </g>
  </g>
</svg>
