<svg xmlns="http://www.w3.org/2000/svg" viewBox="0 0 24 24" width="24" height="24">
  <g transform="translate(1,1)">
    <path d="m-21.550781 18.820312c-1.278552.284235-2.542742.680503-3.728516 1.277344.02712 1.047047.0952 2.051263.232422 3.070313-.4605.295031-.944882.547203-1.375.892578-.437023.33621-.883579.657574-1.279297 1.050781-.790558-.522895-1.626288-1.013507-2.488281-1.447266-.92916.999968-1.798106 2.079366-2.507813 3.28711.533944.86375 1.091496 1.67307 1.69336 2.441406h.01563v5.964844.757812.689454c.01356.000122.02758.000697.04102.002l4.544922.439453c.238034.02298.424838.212636.441406.451172l.138672 2.007812 3.964844.28125.273438-1.851562c.0354-.240043.24157-.417969.484375-.417969h4.792968c.242679 0 .448972.177926.484375.417969l.273438 1.851562 3.964844-.28125.138672-2.007812c.01669-.238536.203372-.428072.441406-.451172l4.5429685-.439453c.013433-.0013.027457-.0018.041016-.002v-.591797-6.820313h.017578c.601989-.768336 1.1591649-1.577656 1.6933594-2.441406-.7094556-1.207744-1.5786529-2.287142-2.5078125-3.28711-.8617418.433759-1.6996769.924371-2.4902343 1.447266-.3955931-.393207-.8396941-.714571-1.2773441-1.050781-.429992-.345375-.915379-.597547-1.375-.892578.136844-1.01905.205179-2.023266.232422-3.070313-1.1859-.596841-2.451289-.993109-3.730469-1.277344-.510718.858353-.977999 1.78857-1.384766 2.697266-.482341-.0806-.965939-.109459-1.451171-.115234v-.002c-.0034 0-.0069.002-.0098.002-.003 0-.0068-.002-.0098-.002v.002c-.48611.0058-.970655.03463-1.453125.115234-.406515-.908696-.873294-1.838913-1.384765-2.697266zm-3.59375 10.84375c1.512568 0 2.738281 1.226216 2.738281 2.738282 0 1.51307-1.225713 2.738281-2.738281 2.738281-1.511815 0-2.738282-1.225211-2.738281-2.738281 0-1.512066 1.226466-2.738282 2.738281-2.738282zm12.882812 0c1.511689 0 2.7382815 1.226216 2.7382815 2.738282 0 1.51307-1.2265925 2.738281-2.7382815 2.738281-1.512819 0-2.738281-1.225211-2.738281-2.738281 0-1.512066 1.225462-2.738282 2.738281-2.738282zm-6.441406 1.601563c.486864 0 .882811.360815.882813.802734v2.519532c0 .442295-.395949.800781-.882813.800781s-.880859-.358486-.880859-.800781v-2.519532c0-.441919.393995-.802734.880859-.802734zm-12.291016 6.519531c.0019.439157.0059.919834.0059 1.015625 0 4.315489 5.47581 6.390209 12.277343 6.414063h.0078.0078c6.801533-.02385 12.2753901-2.098574 12.2753901-6.414063 0-.09755.0058-.576217.00781-1.015625l-4.0859381.394532-.140625 2.015624c-.01695.243056-.210069.437628-.453125.455079l-4.839844.345703c-.0118.000879-.02348 0-.03516 0-.240544 0-.448846-.17642-.484375-.417969l-.277344-1.882813h-3.949218l-.277344 1.882813c-.03729.25335-.264424.436675-.519531.417969l-4.839844-.345703c-.243056-.01745-.436177-.212023-.453125-.455079l-.140625-2.015624z" fill="#209ae7" transform="matrix(.6430000369 0 0 .6430000369 23.02610644574 -9.58730353247)"/>
  </g>
</svg>
