<svg viewBox="0 0 96 96" xmlns="http://www.w3.org/2000/svg">
    <linearGradient id="a" x2="0" y1="541.79797" y2="499.78421" gradientTransform="matrix(1.4999996 0 0 1.4995115 -576.85701 -725.43213)" gradientUnits="userSpaceOnUse">
        <stop stop-color="#3daee9" offset="0"/>
        <stop stop-color="#6cc1ef" offset="1"/>
    </linearGradient>
    <path d="m6 9-1.17e-5 20.999996h84l1.2e-5 -14.999996h-42l-6-6z" fill="#147eb8"/>
    <path d="m38.999988 23.999996-5.999988 6.000004h-28v57h86v-63z" fill="url(#a)"/>
    <g transform="translate(-384.57144 -483.798)" fill-opacity=".235294">
        <path d="m389.57143 513.798v1h29l4.99999-6.99983-6.00001 6z" fill="#fff" fill-rule="evenodd"/>
        <path d="m390.57143 512.798v1.00017h26.99998l6.00002-6.00017-7 5z" fill-rule="evenodd"/>
        <g transform="translate(384.57144 483.798)">
            <path d="m4.9999883 85.999996v1l86-0.01628v-0.983722z"/>
            <path d="m42 9 4.999988 6.999996 43.000012 4e-6v-1h-42z" fill="#fff" fill-rule="evenodd"/>
        </g>
    </g>
    <path d="m38 45c-3.313708 0-6 4.029437-6 9v11c-.01161 1.033541.564097 2.04337 1.451172 2.570312.934757.576713 2.18886.570298 3.11914-.01367.199545-.123833.386235-.267859.550782-.435547l4.121094-4.121095h.09766c.15616.329514.36137.634116.613281.898438.760734.82333 1.933138 1.232702 3.041016 1.066406 1.142139-.152528 2.180532-.918355 2.666015-1.962891h.679688c.485483 1.044536 1.523876 1.810363 2.666015 1.962891 1.107878.166296 2.280282-.243076 3.041016-1.066406.251904-.264322.457117-.568924.613277-.898438h.09766l4.121094 4.121094c.164547.167688.351238.311714.550782.435547.930281.58397 2.184383.590385 3.11914.01367.887067-.52694 1.462779-1.53677 1.451168-2.570311v-11c0-4.970563-2.686292-9-6-9zm0 1h20c2.761424 0 5 3.581722 5 8v11c.0098.779024-.484831 1.53006-1.201172 1.833984-.732484.329225-1.65314.157074-2.21289-.419922l-4.414063-4.414062h-1.171875-.050781v.0039c-.171545.875342-.850073 1.626347-1.705078 1.882813-.867789.28002-1.877203.03276-2.513672-.621094-.343307-.342626-.585929-.789486-.679688-1.265619h-2.101562c-.09376.476133-.336381.922987-.679688 1.265625-.636469.653852-1.645883.901114-2.513672.621094-.855005-.256466-1.533533-1.007471-1.705078-1.882813v-.003906h-.050781-1-.171875l-4.414063 4.414062c-.55975.576996-1.480406.749147-2.21289.419922-.716341-.303924-1.211017-1.05496-1.201172-1.833984v-11c0-4.418278 2.238576-8 5-8zm0 2v3h-3v3h3v3h3v-3h3v-3h-3v-3zm18.5 0c-.82845 0-1.5.67158-1.5 1.5 0 .82845.67155 1.5 1.5 1.5s1.5-.67155 1.5-1.5c0-.82842-.67155-1.5-1.5-1.5zm-3 3c-.82845 0-1.5.67155-1.5 1.5s.67155 1.5 1.5 1.5 1.5-.67155 1.5-1.5-.67155-1.5-1.5-1.5zm6 0c-.82845 0-1.5.67155-1.5 1.5s.67155 1.5 1.5 1.5 1.5-.67155 1.5-1.5-.67155-1.5-1.5-1.5zm-3 3c-.82845 0-1.5.67155-1.5 1.5s.67155 1.5 1.5 1.5 1.5-.67155 1.5-1.5-.67155-1.5-1.5-1.5zm-12 3c-1.3807 0-2.5 1.1193-2.5 2.5s1.1193 2.5 2.5 2.5 2.5-1.1193 2.5-2.5-1.1193-2.5-2.5-2.5zm7 0c-1.3807 0-2.5 1.1193-2.5 2.5s1.1193 2.5 2.5 2.5 2.5-1.1193 2.5-2.5-1.1193-2.5-2.5-2.5z" fill="#1272a5"/>
</svg>
