<svg version="1.1" viewBox="0 0 64 64" xmlns="http://www.w3.org/2000/svg" xmlns:xlink="http://www.w3.org/1999/xlink">
    <defs>
        <linearGradient id="a" x2="0" y1="541.79797" y2="499.78421" gradientTransform="matrix(1 0 0 .99967455 0 .17645)" gradientUnits="userSpaceOnUse">
            <stop stop-color="#3daee9" offset="0"/>
            <stop stop-color="#6cc1ef" offset="1"/>
        </linearGradient>
    </defs>
    <g transform="translate(-384.57143 -483.798)">
        <g transform="translate(0 5e-6)">
            <path d="m388.57143 489.79812v5 22c0 0.55373 0.446 1 1 1h54c0.55399 0 1-0.44627 1-1v-21.99023c0-3e-3 -2e-3 -6e-3 -2e-3 -0.01h2e-3v-1h-28l-4-4h-24z" fill="#147eb8"/>
            <path d="m410.57143 499.79812-4 4h-19v1h2e-3c-5e-5 4e-3 -2e-3 8e-3 -2e-3 0.0117v35.98828 1h1 56 1v-1-35.98828-0.0117-5z" fill="url(#a)"/>
            <g fill-opacity=".235294">
                <path d="m387.57144 503.79812v1h19.99999l3-5-4 4z" fill="#fff" fill-rule="evenodd"/>
                <path d="m388.57143 502.79812v1h18l4-4-6 3z" fill-rule="evenodd"/>
                <path d="m387.57143 540.7981v1h1 56 1v-1h-1-56-1z"/>
                <path transform="translate(384.57143 483.798)" d="m28 6 3 5h2 27v-1h-27-1z" fill="#fff" fill-rule="evenodd"/>
            </g>
        </g>
        <path d="m416.57143 510.798c-2.77 0-5 2.23-5 5v5h-3v9.99997l1.75 3e-5h12.50001l1.74999-3e-5v-9.99997h-3v-5c0-2.77-2.23-5-5-5zm0 1c2.0775 0 4 1.57625 4 4v5h-8v-5c0-2.42375 1.92251-4 4-4z" fill="#1272a5"/>
    </g>
</svg>
