<svg height="16" width="16" xmlns="http://www.w3.org/2000/svg" xmlns:xlink="http://www.w3.org/1999/xlink"><linearGradient id="a" gradientUnits="userSpaceOnUse" x1="4.00001" x2="14.00001" y1="4.99999" y2="14.99999"><stop offset="0" stop-color="#383e51"/><stop offset="1" stop-color="#655c6f" stop-opacity="0"/></linearGradient><linearGradient id="b" gradientTransform="matrix(.72727 0 0 .68966 .727 1.931)" gradientUnits="userSpaceOnUse" x2="0" y1="785.71002" y2="727.71002"><stop offset="0" stop-color="#26c281"/><stop offset="1" stop-color="#3fc380"/></linearGradient><linearGradient id="c" gradientTransform="translate(-15 -20)" gradientUnits="userSpaceOnUse" x2="0" y1="531.79999" y2="515.79999"><stop offset="0" stop-color="#70e4b3"/><stop offset="1" stop-color="#c8f0dc"/></linearGradient><g transform="translate(-384.57 -499.8)"><path d="m386.57 499.8v16h12v-10.5l-5.5-5.5z" fill="url(#b)"/><path d="m386.57001 514.79999h11.999992v1.000012h-11.999992z" fill="#2e3132" fill-opacity=".294"/><path d="m4 5v7l3 3h7v-8l-2-2z" fill="url(#a)" fill-rule="evenodd" opacity=".2" transform="translate(384.57 499.8)"/><path d="m388.57 504.8v7h8v-7zm1 1h6v1h-6zm0 2h2v1h-2zm4 0h2v1h-2zm-4 2h2v1h-2zm4 0h2v1h-2z" fill="url(#c)"/><path d="m398.57 503.8v-4h-4z" fill="#289769"/></g></svg>