<svg height="16" width="16" xmlns="http://www.w3.org/2000/svg" xmlns:xlink="http://www.w3.org/1999/xlink"><linearGradient id="a" gradientTransform="matrix(.72727 0 0 .68966 .727 1.931)" gradientUnits="userSpaceOnUse" x2="0" y1="785.71002" y2="727.71002"><stop offset="0" stop-color="#6c7a89"/><stop offset="1" stop-color="#768492"/></linearGradient><linearGradient id="b" gradientUnits="userSpaceOnUse" x1="389.57" x2="398.57" y1="505.8" y2="514.8"><stop offset="0" stop-color="#383e51"/><stop offset="1" stop-color="#655c6f" stop-opacity="0"/></linearGradient><linearGradient id="c" gradientUnits="userSpaceOnUse" x1="364.02151" x2="364.02151" y1="511.80059" y2="504.7952"><stop offset="0" stop-color="#a0aab4"/><stop offset="1" stop-color="#d8dce0"/></linearGradient><g transform="translate(-384.57 -499.8)"><path d="m386.57 499.8v16h12v-10.5l-5.5-5.5z" fill="url(#a)"/><path d="m386.57001 514.79999h11.999992v1.000012h-11.999992z" fill="#2e3132" fill-opacity=".294" stroke-width=".637385"/><path d="m398.57 503.8s.02-3.99 0-4h-4z" fill="#59646f"/><g fill-rule="evenodd"><path d="m398.57 507.8-1.79688-2h-4l-2.20312 4-.0625 2.24023-.9375-.24023 3 3h6z" fill="url(#b)" opacity=".2"/><path clip-rule="evenodd" d="m392.77312 505.8-2.20312 4.03906v-3.03906h-2v1h1v4l.9375.24023 2.85937-5.24023h3.20313v-1zm2.29688 2c-.82843 0-1.5.67157-1.5 1.5v1c0 .82843.67157 1.5 1.5 1.5h1.5v-1.5-1c0-.82843-.67157-1.5-1.5-1.5zm0 1c.27614 0 .5.22386.5.5v1.5h-.5c-.27614 0-.5-.22386-.5-.5v-1c0-.27614.22386-.5.5-.5z" fill="url(#c)"/></g></g></svg>