<svg version="1.1" viewBox="0 0 16 16" xmlns="http://www.w3.org/2000/svg">
    <style type="text/css" id="current-color-scheme">
        .ColorScheme-NeutralText {
            color:#f67400;
        }
        .ColorScheme-Text {
            color:#232629;
        }</style>
    <rect class="ColorScheme-NeutralText" width="16" height="16" rx="2" fill="currentColor"/>
    <path class="ColorScheme-Text" d="M2 0C.892 0 0 .892 0 2v12c0 1.108.892 2 2 2h12c1.108 0 2-.892 2-2V2c0-1.108-.892-2-2-2zm0 1h12c.554 0 1 .446 1 1v12c0 .554-.446 1-1 1H2c-.554 0-1-.446-1-1V2c0-.554.446-1 1-1z" fill="currentColor" fill-opacity=".6"/>
    <path d="m8 2a3 3 0 0 0-3 3v1h1v-1a2 2 0 0 1 4 0v3h-7v6h10v-6h-2v-3a3 3 0 0 0-3-3zm-4 7h8v4h-8v-4z" fill="#fff"/>
</svg>
