<?xml version="1.0" encoding="UTF-8" standalone="no"?>
<svg
   viewBox="0 0 48 48"
   version="1.1"
   id="svg45"
   sodipodi:docname="distributor-logo-archlinux.svg"
   inkscape:version="1.1 (c4e8f9ed74, 2021-05-24)"
   xmlns:inkscape="http://www.inkscape.org/namespaces/inkscape"
   xmlns:sodipodi="http://sodipodi.sourceforge.net/DTD/sodipodi-0.dtd"
   xmlns:xlink="http://www.w3.org/1999/xlink"
   xmlns="http://www.w3.org/2000/svg"
   xmlns:svg="http://www.w3.org/2000/svg">
  <sodipodi:namedview
     id="namedview47"
     pagecolor="#ffffff"
     bordercolor="#666666"
     borderopacity="1.0"
     inkscape:pageshadow="2"
     inkscape:pageopacity="0.0"
     inkscape:pagecheckerboard="0"
     showgrid="false"
     inkscape:zoom="11.383085"
     inkscape:cx="17.877402"
     inkscape:cy="23.060531"
     inkscape:window-width="1900"
     inkscape:window-height="986"
     inkscape:window-x="10"
     inkscape:window-y="48"
     inkscape:window-maximized="1"
     inkscape:current-layer="svg45" />
  <defs
     id="defs7">
    <linearGradient
       id="linearGradient3764"
       x1="1"
       x2="47"
       gradientUnits="userSpaceOnUse"
       gradientTransform="matrix(0,-1,1,0,-1.5e-6,47.999998)">
      <stop
         style="stop-color:#1791d1;stop-opacity:1"
         id="stop2" />
      <stop
         offset="1"
         style="stop-color:#19a0e3;stop-opacity:1"
         id="stop4" />
    </linearGradient>
    <linearGradient
       inkscape:collect="always"
       xlink:href="#linearGradient1303"
       id="linearGradient1305"
       x1="-15.25123"
       y1="194.95467"
       x2="139.77541"
       y2="42.713833"
       gradientUnits="userSpaceOnUse"
       gradientTransform="matrix(0.14837933,0,0,0.14834817,10.64334,8.7139085)" />
    <linearGradient
       inkscape:collect="always"
       id="linearGradient1303">
      <stop
         style="stop-color:#62aeef;stop-opacity:1;"
         offset="0"
         id="stop1299" />
      <stop
         style="stop-color:#98c379;stop-opacity:1"
         offset="1"
         id="stop1301" />
    </linearGradient>
  </defs>
  <g
     id="g15">
    <path
       d="m 36.31 5 c 5.859 4.062 9.688 10.831 9.688 18.5 c 0 12.426 -10.07 22.5 -22.5 22.5 c -7.669 0 -14.438 -3.828 -18.5 -9.688 c 1.037 1.822 2.306 3.499 3.781 4.969 c 4.085 3.712 9.514 5.969 15.469 5.969 c 12.703 0 23 -10.298 23 -23 c 0 -5.954 -2.256 -11.384 -5.969 -15.469 c -1.469 -1.475 -3.147 -2.744 -4.969 -3.781 z m 4.969 3.781 c 3.854 4.113 6.219 9.637 6.219 15.719 c 0 12.703 -10.297 23 -23 23 c -6.081 0 -11.606 -2.364 -15.719 -6.219 c 4.16 4.144 9.883 6.719 16.219 6.719 c 12.703 0 23 -10.298 23 -23 c 0 -6.335 -2.575 -12.06 -6.719 -16.219 z"
       style="opacity:0.05"
       id="path9" />
    <path
       d="m 41.28 8.781 c 3.712 4.085 5.969 9.514 5.969 15.469 c 0 12.703 -10.297 23 -23 23 c -5.954 0 -11.384 -2.256 -15.469 -5.969 c 4.113 3.854 9.637 6.219 15.719 6.219 c 12.703 0 23 -10.298 23 -23 c 0 -6.081 -2.364 -11.606 -6.219 -15.719 z"
       style="opacity:0.1"
       id="path11" />
    <path
       d="m 31.25 2.375 c 8.615 3.154 14.75 11.417 14.75 21.13 c 0 12.426 -10.07 22.5 -22.5 22.5 c -9.708 0 -17.971 -6.135 -21.12 -14.75 a 23 23 0 0 0 44.875 -7 a 23 23 0 0 0 -16 -21.875 z"
       style="opacity:0.2"
       id="path13" />
  </g>
  <g
     id="g19">
    <path
       d="m 24 1 c 12.703 0 23 10.297 23 23 c 0 12.703 -10.297 23 -23 23 -12.703 0 -23 -10.297 -23 -23 0 -12.703 10.297 -23 23 -23 z"
       style="fill:#1c2027;fill-opacity:1"
       id="path17" />
  </g>
  <g
     id="g43">
    <path
       d="m 40.03 7.531 c 3.712 4.084 5.969 9.514 5.969 15.469 0 12.703 -10.297 23 -23 23 c -5.954 0 -11.384 -2.256 -15.469 -5.969 4.178 4.291 10.01 6.969 16.469 6.969 c 12.703 0 23 -10.298 23 -23 0 -6.462 -2.677 -12.291 -6.969 -16.469 z"
       style="opacity:0.1"
       id="path41" />
  </g>
  <path
     id="path1459"
     style="fill:#191d23;fill-opacity:1;stroke-width:0.148361"
     d="m 24.880224,10.623894 v 5.63e-4 c -1.097521,2.690217 -1.759185,4.450162 -2.98121,7.060433 1.062971,0.537106 1.993283,1.392081 3.162046,2.762985 -1.329014,-1.051123 -2.365071,-1.685866 -3.519373,-2.01196 -1.56388,3.262547 -4.01401,7.909894 -8.985934,16.841589 1.473921,-0.864445 9.806809,-3.040395 9.049981,-5.010827 -0.204187,-0.491959 -0.614991,-0.557331 -1.247315,-0.782009 V 28.23269 c 0.633485,-0.225445 1.043128,-0.289954 1.247315,-0.782301 0.204576,-0.493125 -0.0397,-0.828861 -0.328347,-1.436254 l 0.885349,-0.884875 c 0.610234,0.290145 0.943812,0.532521 1.436265,0.32799 h 3.06e-4 c 0.492064,-0.204144 0.556972,-0.613704 0.782466,-1.247057 h 1.252241 c 0.226274,0.636457 0.290503,1.043294 0.782181,1.247057 h 3.05e-4 c 0.493616,0.204531 0.831746,-0.04057 1.436557,-0.32799 l 0.88506,0.884875 c -0.289431,0.609332 -0.532248,0.943899 -0.328059,1.436254 v 3.01e-4 c 0.203415,0.490802 0.607631,0.554629 1.247318,0.782016 v 1.251978 c -4.139437,2.312795 5.53417,4.994538 7.551995,5.792834 -0.760134,-1.399163 -1.438733,-2.660551 -2.086591,-3.861699 -1.020583,-0.790856 -2.085149,-1.820001 -4.256631,-2.934218 1.492516,0.387746 2.561201,0.835107 3.394178,1.335129 C 27.672702,17.554268 27.139243,15.924842 24.880224,10.623894 Z m 0.127511,16.685403 c -0.855883,0 -1.549579,0.693839 -1.549579,1.549548 0,0.855701 0.693696,1.549248 1.549579,1.549248 0.855882,0 1.549871,-0.693547 1.549871,-1.549248 0,-0.855709 -0.693989,-1.549548 -1.549871,-1.549548 z"
     sodipodi:nodetypes="cccccccccccccccccccccccccccccsssss" />
  <path
     id="path53"
     style="fill:url(#linearGradient1305);fill-opacity:1;stroke-width:0.148361"
     d="m 23.995164,9.739019 v 5.63e-4 c -1.097521,2.690217 -1.759185,4.450162 -2.98121,7.060433 1.062971,0.537106 1.993283,1.392081 3.162046,2.762985 -1.329014,-1.051123 -2.365071,-1.685866 -3.519373,-2.01196 -1.56388,3.262547 -4.01401,7.909894 -8.985934,16.841589 1.473921,-0.864445 9.806809,-3.040395 9.049981,-5.010827 -0.204187,-0.491959 -0.614991,-0.557331 -1.247315,-0.782009 v -1.251978 c 0.633485,-0.225445 1.043128,-0.289954 1.247315,-0.782301 0.204576,-0.493125 -0.0397,-0.828861 -0.328347,-1.436254 l 0.885349,-0.884875 c 0.610234,0.290145 0.943812,0.532521 1.436265,0.32799 h 3.06e-4 c 0.492064,-0.204144 0.556972,-0.613704 0.782466,-1.247057 h 1.252241 c 0.226274,0.636457 0.290503,1.043294 0.782181,1.247057 h 3.05e-4 c 0.493616,0.204531 0.831746,-0.04057 1.436557,-0.32799 l 0.88506,0.884875 c -0.289431,0.609332 -0.532248,0.943899 -0.328059,1.436254 v 3.01e-4 c 0.203415,0.490802 0.607631,0.554629 1.247318,0.782016 v 1.251978 c -4.139437,2.312795 5.53417,4.994538 7.551995,5.792834 -0.760134,-1.399163 -1.438733,-2.660551 -2.086591,-3.861699 -1.020583,-0.790856 -2.085149,-1.820001 -4.256631,-2.934218 1.492516,0.387746 2.561201,0.835107 3.394178,1.335129 C 26.787642,16.669393 26.254183,15.039967 23.995164,9.739019 Z m 0.127511,16.685403 c -0.855883,0 -1.549579,0.693839 -1.549579,1.549548 0,0.855701 0.693696,1.549248 1.549579,1.549248 0.855882,0 1.549871,-0.693547 1.549871,-1.549248 0,-0.855709 -0.693989,-1.549548 -1.549871,-1.549548 z"
     sodipodi:nodetypes="cccccccccccccccccccccccccccccsssss" />
</svg>
