<svg xmlns="http://www.w3.org/2000/svg" viewBox="0 0 16 16">
    <defs id="defs3051">
        <style type="text/css" id="current-color-scheme">
            .ColorScheme-Text {
                color:#232629;
            }
        </style>
    </defs>
    <path style="fill:currentColor;fill-opacity:1;stroke:none"
        d="M 8 8 m -7 0 a 6 6 0 1 0 14 0 a 6 6 0 1 0 -14 0 z M 8 8 m -6 0 a 5 5 0 1 1 12 0 a 5 5 0 1 1 -12 0 z M 12 4 L 6.5 6.5 L 4 12 L 9.5 9.5 z M 8 8 m -1 0 a 0.5 0.5 0 1 1 2 0 a 0.5 0.5 0 1 1 -2 0 z M 1.5 8 L 1.5 9 L 3.5 8 z M 8 1.5 L 7 1.5 L 8 3.5 z M 14.5 8 L 14.5 7 L 12.5 8 z M 8 14.5 L 9 14.5 L 8 12.5 z"
        class="ColorScheme-Text"
        />
</svg>
