<!DOCTYPE svg>
<svg version="1.1" viewBox="0 0 16 16" xmlns="http://www.w3.org/2000/svg">
    <defs>
        <style type="text/css" id="current-color-scheme">
            .ColorScheme-Text {
                color:#232629;
            }
        </style>
    </defs>
    <path d="M 8 1 L 8 7 L 2 7 L 2 8 L 8 8 L 8 14 L 9 14 L 9 8 L 15 8 L 15 7 L 9 7 L 9 1 L 8 1 Z" class="ColorScheme-Text" style="fill:currentColor; fill-opacity:1; stroke:none"/>
    <path d="M 14 2 L 14 7 L 9 7 L 9 2 L 14 2 Z M 8 2 L 8 7 L 3 7 L 3 2 L 8 2 Z M 14 8 L 14 13 L 9 13 L 9 8 L 14 8 Z M 8 8 L 8 13 L 3 13 L 3 8 L 8 8 Z" class="ColorScheme-Text" style="fill:currentColor; fill-opacity:0.5; stroke:none"/>
</svg>
