<svg version="1.1" viewBox="0 0 48 48" xmlns="http://www.w3.org/2000/svg">
    <linearGradient id="a" x2="0" y1="541.79797" y2="499.78421" gradientTransform="matrix(.69229859 0 0 .69207328 120.25629 150.83367)" gradientUnits="userSpaceOnUse">
        <stop stop-color="#3daee9" offset="0"/>
        <stop stop-color="#6cc1ef" offset="1"/>
    </linearGradient>
    <g transform="translate(-384.57144,-483.798)">
        <g stroke-width=".692299">
            <path d="m389.57144 489.79806v10.99994h38l-1e-5 -8h-19l-3-3-15.99999-1.8e-4z" fill="#147eb8"/>
            <path d="m404.57143 496.798-3 3h-13l1e-5 26.00047 39.99999-4.7e-4v-29z" fill="url(#a)"/>
            <g fill-opacity=".235294" fill-rule="evenodd">
                <path d="m388.57143 499.798v1h14l2-4-3 3z" fill="#fff"/>
                <path d="m389.56364 498.79794 0.0156 1.00006h11.99217l3-3-4 2z"/>
            </g>
        </g>
        <path d="m388.57144 524.79776v0.9998c-1e-5 4.5e-4 39.99999 0 39.99999 0v-0.9998z" fill-opacity=".235294" stroke-width=".830373"/>
        <path d="m405.57143 489.798 2 4h20v-1h-19z" fill="#fff" fill-opacity=".235294" fill-rule="evenodd" stroke-width=".692299"/>
        <path transform="translate(400.57143,-532.5642)" d="m8 1038.3622c-1.662 0-3 1.338-3 3v3h-2v6h10v-6h-2v-3c0-1.662-1.338-3-3-3zm0 1c1.2465 0 2 0.5458 2 2v3h-4v-3c0-1.4542 0.753506-2 2-2z" fill="#1272a5"/>
    </g>
</svg>
