<svg viewBox="0 0 48 48" xmlns="http://www.w3.org/2000/svg">
    <linearGradient id="a" x2="0" y1="541.79797" y2="499.78421" gradientTransform="matrix(.69229859 0 0 .69207328 120.25629 150.83367)" gradientUnits="userSpaceOnUse">
        <stop stop-color="#3e3e3e" offset="0"/>
        <stop stop-color="#494949" offset="1"/>
    </linearGradient>
    <g transform="translate(-384.57144 -483.798)">
        <g stroke-width=".692299">
            <path d="m389.57144 489.79806v10.99994h38l-1e-5 -8h-19l-3-3-15.99999-1.8e-4z" fill="#2d2d2d"/>
            <path d="m404.57143 496.798-3 3h-13l1e-5 26.00047 39.99999-4.7e-4v-29z" fill="url(#a)"/>
            <g fill-opacity=".235294" fill-rule="evenodd">
                <path d="m388.57143 499.798v1h14l2-4-3 3z" fill="#fff"/>
                <path d="m389.56364 498.79794.0156 1.00006h11.99217l3-3-4 2z"/>
            </g>
        </g>
        <path d="m388.57144 524.79776v.9998c-.00001.00045 39.99999 0 39.99999 0v-.9998z" fill-opacity=".235294" stroke-width=".830373"/>
        <path d="m405.57143 489.798 2 4h20v-1h-19z" fill="#fff" fill-opacity=".235294" fill-rule="evenodd" stroke-width=".692299"/>
        <g transform="translate(-1.3e-5 -36.999978)" fill="#5f5f5f">
            <path d="m388.57144 539.79797h3v3h-3z" opacity=".6"/>
            <path d="m394.57144 539.79797h3v3h-3z" opacity=".6"/>
            <path d="m400.57144 539.79797h3v3h-3z" opacity=".6"/>
            <path d="m406.57144 539.79797h3v3h-3z" opacity=".6"/>
            <path d="m412.57144 539.79797h3v2.999999h-3z" opacity=".6"/>
            <path d="m418.57144 539.79797h3v3.000001h-3z" opacity=".6"/>
            <path d="m424.57144 533.79797h3v3h-3z" opacity=".6"/>
            <path d="m391.57144 536.79797h3v3h-3z" opacity=".6"/>
            <path d="m397.57144 536.79797h3v3h-3z" opacity=".6"/>
            <path d="m403.57144 536.79797h3v3h-3z" opacity=".6"/>
            <path d="m409.57144 536.79797h3v3h-3z" opacity=".6"/>
            <path d="m415.57144 536.79797h3v3h-3z" opacity=".6"/>
            <path d="m424.57144 539.79797h3v3.000001h-3z" opacity=".6"/>
            <path d="m427.57144 536.79797h1v3.000001h-1z" opacity=".6"/>
            <path d="m403.57144 534.79797v2l-2 1e-5z" opacity=".6"/>
            <path d="m406.57144 533.79797h3v3h-3z" opacity=".6"/>
            <path d="m412.57144 533.79797h3v3h-3z" opacity=".6"/>
            <path d="m421.57144 536.79797h3v3h-3z" opacity=".6"/>
            <path d="m418.57144 533.79797h3v3h-3z" opacity=".6"/>
        </g>
        <path d="m408.57143 505.798c-1.65686 0-3 1.34314-3 3v1h1v-1c0-1.10457 0.89543-2 2-2s2 0.89543 2 2v3h-7v6h10v-6h-2v-3c0-1.65686-1.34314-3-3-3zm-4 7h8v4h-8z" fill="#7a7a7a"/>
    </g>
</svg>
