<svg id="svg15" version="1.1" viewBox="0 0 96 96" xmlns="http://www.w3.org/2000/svg" xmlns:xlink="http://www.w3.org/1999/xlink">
    <defs id="defs5455">
        <linearGradient id="linearGradient4178" x2="0" y1="541.79797" y2="499.78421" gradientTransform="matrix(1.4999996,0,0,1.4995115,-576.85701,-725.43213)" gradientUnits="userSpaceOnUse">
            <stop id="stop4174-6-7" stop-color="#3daee9" offset="0"/>
            <stop id="stop4176-6-5" stop-color="#6cc1ef" offset="1"/>
        </linearGradient>
    </defs>
    <g id="layer1" transform="translate(-384.57144,-483.798)">
        <path id="rect4180" transform="translate(384.57144,483.798)" d="m6 9-1.17e-5 20.999996h84l1.2e-5 -14.999996h-42l-6-6z" fill="#147eb8" stroke-width="1.5"/>
        <path id="rect4113" transform="translate(384.57144,483.798)" d="M 38.999988,23.999996 33,30 H 5 V 87 H 91 V 24 Z" fill="url(#linearGradient4178)" stroke-width="1.5"/>
        <g fill-opacity=".235294" stroke-width="1.5">
            <path id="path4224-1" d="m389.57143 513.798v1h29l4.99999-6.99983-6.00001 6z" fill="#fff" fill-rule="evenodd"/>
            <path id="path4228-0" d="m390.57143 512.798v1.00017h26.99998l6.00002-6.00017-7 5z" fill-rule="evenodd"/>
            <path id="path4151-2" transform="translate(384.57144,483.798)" d="m4.9999883 85.999996v1l86-0.01628v-0.983722z"/>
            <path id="path4196" transform="translate(384.57144,483.798)" d="M 42,9 46.999988,15.999996 90,16 V 15 H 48 Z" fill="#fff" fill-rule="evenodd"/>
        </g>
        <path id="path1031" transform="translate(384.57144,483.798)" d="M 47.886719,41 A 15,15 0 0 0 33,56 15,15 0 0 0 48,71 15,15 0 0 0 63,56 15,15 0 0 0 48,41 15,15 0 0 0 47.886719,41 Z M 48,42 A 14,14 0 0 1 62,56 14,14 0 0 1 48,70 14,14 0 0 1 34,56 14,14 0 0 1 48,42 Z" fill="#1272a5" stroke-width="2.12132"/>
        <path id="path989" d="m429.65005 526.32628c-0.15855-0.0339-0.2483 0.25293-0.438 0.34067-0.10186 0.0481-0.28459 0.0686-0.38934 0.0486-0.0679-0.014-0.18617-0.0646-0.19467-0.19468-7e-3 -0.075 0.0173-0.10155 0.0486-0.14593 4e-3 -7e-3 1e-3 -0.0211 0-0.0334-0.84259 0.24359-1.56069 0.7384-2.28432 1.22581-0.25696 0.17306-0.50946 0.35035-0.77562 0.50797-7e-3 0.0727-0.0286 0.13393-0.0549 0.1977-0.0595 0.14437-0.24497 0.25468-0.38934 0.24333-0.0489-3e-3 -0.0796-0.0697-0.13689-0.1126-0.56763 0.37397-1.25131 0.54292-1.76115 0.99769 0.0792 0.11804 0.1624 0.26172 0 0.33155-0.0284 0.014-0.37006 0.0627-0.438 0.0486-0.014-1e-3 -0.0215-0.0175-0.0303-0.0304-0.0663 0.0643-0.0872 0.15956-0.15215 0.22508 0.0738-0.0442 0.2619-0.0541 0.37717-0.0486 0.0397 0 0.0343-0.0169 0.0486 0-0.0197 0.14998-0.0786 0.17257-0.19467 0.24333-0.20102 0.12179-0.32423 0.27492-0.38934 0.53534-0.0197 0.0764-0.24441 0.31181-0.34067 0.29201-0.20583-0.0442-0.1207-0.42724-0.0393-0.53532-1.00425 1.11363-1.81485 2.39689-2.41217 3.75021 0.10033 0.0235 0.2702 0.0377 0.35867 0.0458 0.26049 0.0197 0.27149-0.17879 0.48668-0.29201 0.22085 0.0312 0.33432-0.0226 0.53534 0 0.13596 0.014 0.33041 0.18618 0.438 0.19466 0.0906 3e-3 0.10965-0.11151 0.19468-0.0972 0.0848 0.014 0.22918 0.1901 0.24333 0.292 0.014 0.1274-0.0856 0.2478-0.0486 0.38933 0.13316 0.13596 0.39431 0.21275 0.58401 0.292 0.12459-0.10206 0.0197-0.33946 0-0.48667-3e-3 -0.0651 7e-3 -0.13517 0-0.19466-0.014-0.10186-0.0486-0.20427-0.0486-0.292 0-0.40477 0.3122-0.57148 0.58401-0.73001 0.11601-0.068 0.23873-0.19238 0.34067-0.24334 0.14436-0.0709 0.22175-0.0782 0.34067-0.14593 0.21516-0.12178 0.41694-0.25061 0.58401-0.38933 0.0764-0.18397-7e-3 -0.40286 0-0.584 0.0764-0.0481 0.11259 7e-3 0.19467 0 0.13019-0.0283 0.1697-0.21842 0.24334-0.29202 0.0426-0.0426 0.1923-0.0551 0.24332-0.0973 0.1302-0.10206 0.13005-0.24671 0.24334-0.292 0.0398-0.014 0.13222-0.0318 0.19466-0.0486 0.0851-0.0225 0.20479-0.0981 0.34068-0.14592 0.0879-0.0312 0.30668-0.0155 0.34066-0.0486 0.0426-0.0426-0.0109-0.2269 0-0.29202 0.0679-0.31985 0.54139-0.33041 0.82735-0.438 0.19819-0.0765 0.41184-0.23714 0.63269-0.19467-0.0426 0.15277-0.2315 0.10792-0.19468 0.292 0.0481 0.25759 0.3474-0.0606 0.43801-0.0973 0.1727-0.0737 0.50348-0.11259 0.73-0.19467 0.19819-0.0707 0.52753-0.20874 0.34068-0.438-0.15574-0.0109-0.20478 0.13797-0.34068 0.19466-0.0935 0.014-0.11541-0.043-0.19466-0.0486-0.0765-3e-3 -0.11821 0.0627-0.19468 0.0486-0.0764-0.014-0.18334-0.15277-0.19466-0.24333-0.0312-0.23776 0.24442-0.31118 0.34067-0.48668-0.0651-0.21513-0.35415-0.0125-0.53535-0.0973 0.0197-0.12738 0.0933-0.2665 0.24335-0.29199 0.12178-0.0197 0.41306 0.0384 0.48667 0.0973 0.0426 0.0368-0.0163 0.13518 0.0486 0.19465 0.0738 0.0651 0.19575 0.014 0.29201 0 0.0339-0.16133-0.22299-0.09-0.19467-0.19465 0.19251-0.12459 0.54366-0.0661 0.77866-0.0973 0.13596-0.0197 0.2676-0.12959 0.38934-0.19467 0.11323-0.0651 0.22176-0.15631 0.34067-0.0486 0.0339 0.11601-0.0811 0.18389-0.14592 0.24334-0.21801 0.19246-0.41413 0.40906-0.584 0.63267 0.1048 0.10206 0.26246 0.029 0.438 0.0486 0.0679 7e-3 0.17255 0.0374 0.24334 0.0486 0.0849 0.014 0.17538-0.014 0.24333 0 0.11898 0.0283 0.12444 0.19467 0.24333 0.19467 0.19255 0 0.20784-0.16178 0.0973-0.292 0.0339-0.13316 0.0969-0.24725 0.0486-0.34067-0.0879-0.17551-0.42102 0.0289-0.438-0.19467-0.0109-0.14157 0.14374-0.18443 0.19466-0.292-0.0225-0.27173 0.22299-0.28908 0.19467-0.53534-0.014-0.10206-0.12381-0.0985-0.19467-0.19468-0.0368-0.0509-0.0551-0.15785-0.0973-0.19466-0.14716-0.12459-0.42101-0.10299-0.438-0.34068-7e-3 -0.14156 0.0197-0.23649 0-0.38933-0.0197-0.14438-0.16748-0.5557-0.29201-0.584zm-4.61426 2.07749c0.18716-0.12335 0.38821-0.21437 0.58097-0.3285 0.0125-0.12397 9e-3 -0.25912 0.0912-0.33764 0.26627 6e-3 0.50055-0.0535 0.68438-0.17035 0.18383-0.1168 0.31722-0.28976 0.3863-0.51099-0.62666 0.28511-1.22753 0.60275-1.80069 0.97334-0.0188 0.0704-0.0973 0.16215-0.0973 0.24335 0 0.053 0.0894 0.0819 0.15511 0.13082zm14.01617-1.02506c0.0213 0.0109 0.0427 0.0222 0.0639 0.0334-7e-3 -4e-3 -0.0159-0.0109-0.0243-0.0155-0.0125-6e-3 -0.0268-0.0109-0.0395-0.0182zm0.0639 0.0334c0.0413 0.0262 0.0789 0.0589 0.12163 0.082 0.0394 0.0521 0.028 0.10776 0.0973 0.14592 0.0509 0.0284 0.0981 0.0719 0.14591 0.0973 0.082 0.0453 0.16298 0.11524 0.14593 0.19467-0.0225 0.11602-0.21273 0.10963-0.292 0.19467 0.0109 0.16418-0.0551 0.133-0.0973 0.24333 0.0255 0.0709 0.0861 0.0611 0.0973 0.14592-0.014 0.0906-0.13129 0.10124-0.0973 0.19468 0.15294 0.11898 0.29362 0.0197 0.43801 0 0.31711-0.0397 0.58331 6e-3 0.77868-0.14593-0.0205-0.12116 0.0951-0.15572 0.14593-0.24334-0.47546-0.33361-0.97121-0.63736-1.48437-0.90946zm-0.41368 0.13083c-0.0521 9e-3 -0.10022 0.0218-0.14593 0.0486-0.10761 0.0651-0.11258 0.16353-0.19466 0.19467-0.11602 0.0426-0.27501 0.0415-0.292 0.14593-0.014 0.0879 0.10022 0.1154 0.0973 0.19467-0.0426 0.1048-0.12333 0.11585-0.14592 0.24333 0.14437 0.23494 0.50299 3e-3 0.68134-0.0486 0.0792-0.0226 0.15215 0.0125 0.19468-0.0486 0.0481-0.0765 0.0125-0.2331 0.0486-0.34067 0.0397-0.11898 0.16018-0.09 0.14593-0.19467-0.0109-0.10481-0.2138-0.21166-0.38934-0.19467zm2.15658 1.03723c-0.0657 0.0246-0.16362 0.0529-0.20989 0.082-0.0792 0.0536-0.10401 0.13518-0.19468 0.19467-0.0651 0.0454-0.22404 0.19466-0.29199 0.19466-0.082 0-0.23255-0.0683-0.292-0.0486-0.085 0.0255-0.05 0.1607-0.14593 0.19467-0.18687 0.0678-0.51889-0.18284-0.584 0.0973 0.0792 0.16133 0.3451 0.10699 0.48667 0.19466 0.0879 0.0567 0.22069 0.34177 0.24334 0.43801 0.0225 0.0792 0.0339 0.35309 0 0.43801-0.0879 0.22643-0.32355 0.20034-0.58401 0.19467-0.0709 0-0.12958 6e-3 -0.19467 0-0.43885-0.0283-0.87248-0.16817-1.07068 0.14592 0.014 0.24059 0.0538 0.37453 0 0.58401-0.0395 0.15277-0.20318 0.25629-0.19467 0.38934 3e-3 0.0679 0.12909 0.19857 0.14592 0.292 0.0109 0.0509-0.0227 0.14951 0 0.19467 0.0738 0.13875 0.2591-0.0225 0.38934 0 0.12459 0.0197 0.24334 0.20197 0.24334 0.34067 0 0.099-0.0349 0.29309-0.0973 0.38934-0.12459 0.18681-0.35695 0.14141-0.53534 0.24333-0.14716 0.0849-0.20422 0.29081-0.292 0.43801-0.0935 0.15852-0.18286 0.21157-0.14593 0.43799-0.12738 0.25193-0.27203 0.41362-0.53532 0.53535-0.0765 0.0339-0.17256 0.0951-0.24334 0.14593-0.0567 0.0395-0.11525 0.104-0.19467 0.19466-0.099 0.11042-0.23821 0.15842-0.29201 0.24335-0.0397 0.0651-6e-3 0.20426-0.0486 0.292-0.0623 0.11896-0.16406 0.22177-0.24334 0.34067-0.0368 0.0567-0.10653 0.121-0.14593 0.19467-0.0906 0.16418-0.21165 0.29365-0.19466 0.438 0.014 0.13876 0.18618 0.17028 0.19466 0.292 7e-3 0.0679-0.0515 0.12101-0.0486 0.19467 3e-3 0.10762 0.0401 0.15842 0.0486 0.24333 0.0197 0.20947-0.10651 0.29365-0.14591 0.43801-0.0197 0.0679 0.017 0.14094 0 0.19467-0.0339 0.10482-0.19184 0.16747-0.19468 0.292-3e-3 0.0879 0.13751 0.16753 0.14593 0.29201 6e-3 0.0848-0.0655 0.16408-0.0486 0.24333 0.0312 0.15294 0.31912 0.3678 0.43801 0.48668 0.16139 0.16136 0.31858 0.26816 0.38934 0.43801 0.0595 0.14435 0.0843 0.3791 0.19467 0.48667 0.082 0.0792 0.23592 0.1126 0.34067 0.19467 0.0991 0.0765 0.23592 0.1126 0.34068 0.19467 0.1727 0.13595 0.40669 0.40915 0.68134 0.38934 0.14435-0.0109 0.2766-0.0692 0.438-0.0973 0.16704-0.0284 0.36547-0.11431 0.53535-0.0973 0.13019 0.014 0.25344 0.1059 0.38933 0.0973 0.14156-7e-3 0.3253-0.0754 0.48667-0.14593 0.28031-0.12179 0.71165-0.35144 1.11935-0.292 0.31143 0.0454 0.31733 0.39663 0.53534 0.53533 0.24914 0.0226 0.43448-0.0481 0.63268 0 0.15013 0.0368 0.32651 0.31914 0.34067 0.43801 0.014 0.12178-0.0804 0.21558-0.0973 0.29201-0.0395 0.16417-0.0692 0.38193-0.0973 0.48667-0.0225 0.082-0.0515 0.16125-0.0486 0.24332 0 0.0738 0.1182 0.24443 0.19467 0.34068 0.0935 0.11898 0.22742 0.21047 0.34066 0.34067 0.20671 0.23777 0.29361 0.56181 0.43802 0.87601 0.0368 0.0792-0.0339 0.0956 0 0.19467-0.0623 0.47557-0.2239 0.78753-0.53535 1.31402-0.14717 0.16982-0.29484 0.37172-0.292 0.584-0.0109 0.50951 0.26599 0.77283 0.24334 1.26535-0.0509 0.66237 3e-3 0.76553-0.0486 1.11936 0.22368 0.11321 0.11369 0.44639 0.0486 0.68134-0.0962 0.28021-0.18955 0.34852-0.24334 0.53534 0.10465 0.0454 0.19743 0.0505 0.30722 0.0426 2.5187-2.61189 3.92634-6.09884 3.92683-9.72735-5.3e-4 -2.19932-0.65817-5.49784-1.64859-6.23853-8.8e-4 4e-3 -4e-3 4e-3 -6e-3 9e-3 -0.0284 0.1585 0.0917 0.36104-0.14593 0.38934-0.14997 0.0197-0.32867-0.14951-0.53533-0.19467-0.0848-0.0197-0.22406 0.0226-0.29201 0-0.15574-0.0536-0.11025-0.24727-0.24334-0.34067-0.0764-0.0538-0.26758-0.13191-0.38933-0.14593-0.0765-7e-3 -0.1154 0.0109-0.19468 0-0.0962-0.0109-0.26139-5.4e-4 -0.34066-0.0486-0.0764-0.0481-0.27219-0.12957-0.29201-0.19467-0.0312-0.10481 0.23768-0.25291 0.24333-0.34067 6e-3 -0.0679-0.0832-0.0929-0.0973-0.19467-0.0109-0.0623 0.014-0.15496 0-0.19467-0.0197-0.0738-0.12723-0.14312-0.24333-0.14592-0.10206 0-0.20423 0.0486-0.29201 0.0486-0.12458 3e-3 -0.37961-0.0627-0.53532-0.0486-0.0935 7e-3 -0.15559 0.043-0.24334 0.0486-0.24633 0.0197-0.39149-0.014-0.58401 0-0.13877 7e-3 -0.4051 0.0868-0.53535 0.14593-0.0651 0.0312-0.10963 0.10372-0.19467 0.14593-0.0394 0.0197-0.0948 0.0261-0.14591 0.0486-0.0793 0.0368-0.21557 0.1263-0.29201 0.14592-0.11042 0.0283-0.23698-7e-3 -0.43801 0-0.14436 7e-3 -0.3865-0.0221-0.38934-0.19466-3e-3 -0.26324 0.48087-0.14951 0.73001-0.19468 0.0935-0.0197 0.13003-0.12958 0.24334-0.19466 0.0539-0.0312 0.0951-0.0633 0.14592-0.0973 0.0848-0.0595 0.22918-0.17539 0.24335-0.24333 0.0109-0.0623-0.0572-0.1495-0.0486-0.19467 0.0109-0.0595 0.1182-0.1182 0.19467-0.19467 0.11898-0.11899 0.19342-0.26425 0.34067-0.34067 0.099-0.0536 0.29537-0.067 0.34068-0.14592 0.0109-0.0906-3e-3 -0.1126 0-0.19468 0.0623-0.0567 0.0464-0.0862 0.0973-0.0973 0.15293-0.0339 0.30831 0.0572 0.48668 0.0486 0.0764-3e-3 0.16123 6e-3 0.24334-0.0486 0.0679-0.0454 0.12676-0.11214 0.19466-0.14593 0.0738-0.0397 0.15262-0.14031 0.24333-0.14593 0.22368-0.014 0.33609 0.25346 0.43801 0.38934 0.0848 0.11042 0.34792 0.26424 0.48667 0.34068 0.0792 0.0426 0.15558 0.10652 0.24335 0.14592 0.0617 0.0276 0.26045 0.0604 0.3414 0.10948-0.79381-1.03081-1.67916-1.93559-2.72618-2.70938zm-17.19476 1.25013c0.0679 3e-3 0.1154 0.14032 0.19467 0.14592 0.0764 6e-3 0.19796-0.0627 0.24333-0.0486 0.11899 0.0312 0.16199 0.25292 0.0486 0.34066-0.0935 0.0109-0.12678-0.11149-0.19468-0.0973-0.19253 0.0339-0.24494 0.40067-0.38934 0.38934-0.13595-0.014-0.23614-0.29027-0.0973-0.38934 3e-3 -0.0851-0.0545-0.10979-0.0486-0.19468 0.0426-0.0536 0.13005-0.15447 0.24334-0.14591zm0.14592 0.97334c0.0481 0 0.095-0.0197 0.14593 0-0.1302 0.11042-0.30884 0.17257-0.53535 0.24334-0.10761 0.0339-0.27217 0.0701-0.292-0.0486-0.0227-0.14717 0.0984-0.13191 0.19467-0.14592 0.12459-0.014 0.34227-0.0458 0.48667-0.0486zm18.4449 0c-0.0935 0.0312-0.13877 0.21787 0 0.24334 0.0651-0.0395 0.0657-0.12443 0.0486-0.24334-0.0368-0.0394-0.0203-0.0109-0.0486 0zm-0.0486 0.38934c-0.0454 0.014-0.0981-3e-3 -0.14593 0.0486 3e-3 0.15851 0.0312 0.25065 0 0.38934 0.0906 0.1755 0.29539 0.0701 0.34068-0.0486 0.0538-0.29439-0.0587-0.42615-0.19467-0.38935zm1.57257 0.30722c0.0572 0.0811 0.12785 0.16742 0.13082 0.22811 3e-3 0.0906-0.0629 0.15842-0.0486 0.24336 0.0981 0.016 0.14888-0.0839 0.19467-0.19468-0.0754-0.10777-0.19855-0.17132-0.2768-0.27679zm-0.35588 0.47147c-0.12459-6e-3 -0.21839 0.0385-0.29201 0.0973 0.10482 0.16984 0.30033 0.20088 0.53534 0.24334 0.0848-0.0623 0.0578-0.2331 0.0973-0.34066-0.10206 0-0.16743 6e-3 -0.29199 0zm-23.11696 4.2827c-0.23499 0.014-0.39941 0.0357-0.53533 0.0973-0.30577 0.13876-0.22672 0.53644-0.53535 0.63267-0.0311 9e-3 -0.36012-0.12459-0.3989-0.11352-0.0794 0.3803-0.1627 0.99144-0.21036 1.37891 0.05 0.0515 0.35608 0.0197 0.41463 0.0487 0.0709 0.0368 0.15277 0.029 0.24334 0.0486 0.0737 0.014 0.12396 0.0748 0.19467 0.0972 0.15013 0.0509 0.36777 0.0436 0.48667 0.0973 0.18121 0.0792 0.28226 0.39608 0.43801 0.48667 7e-3 0.0906-0.0283 0.1754 0 0.24335 0.0738 0.099 0.22173 0.12957 0.34067 0.19466 0.14436 0.0792 0.20476 0.27839 0.34067 0.34067 0.0481 0.0197 0.121-0.0226 0.19466 0 0.18687 0.0567 0.22795 0.34012 0.38934 0.292 0.1048-0.0312 0.1291-0.1901 0.14592-0.292 0.0709-0.0764 0.13286-0.19467 0.24334-0.19467 0.17554-3e-3 0.22687 0.2167 0.292 0.38934 0.0368 0.0962 0.12054 0.19011 0.14593 0.29201 0.0426 0.17549 0.0368 0.67394 0 0.77868-0.0454 0.13019-0.23307 0.19914-0.34067 0.34067-0.0509 0.0679-0.10653 0.14949-0.14592 0.19466-0.0679 0.0849-0.14359 0.11836-0.19468 0.19468-0.0284 0.0426-0.0232 0.13518-0.0486 0.19465-0.085 0.18116-0.21683 0.31738-0.14592 0.53534 0.0283 0.0879 0.14592 0.1873 0.14592 0.29201 0 0.12459-0.27219 0.15615-0.292 0.29201-0.014 0.099 0.11493 0.30496 0.14592 0.43801 0.0226 0.099 0.18387 0.17822 0.24333 0.24333 0.099 0.11042 0.20139 0.2478 0.292 0.38934 0.17838 0.27456 0.2625 0.60711 0.43801 0.87601 0.0935 0.13875 0.27838 0.24214 0.34067 0.38934 0.0312 0.0737-0.0283 0.22408 0 0.29199 0.10186 0.2293 0.59802 0.4708 0.82735 0.58402 0.10762 0.0539 0.19291 0.0894 0.29201 0.14592 0.15012 0.0849 0.45889 0.25631 0.53533 0.38934 0.0679 0.11897 0.11197 0.39437 0.14591 0.584 0.0426 0.24911-0.0109 0.4611 0 0.73001 7e-3 0.14717 0.0486 0.24213 0.0486 0.38935 0 0.0509 3e-3 0.14373 0 0.19466-3e-3 0.1755 0.014 0.35702 0 0.53534-7e-3 0.0962-6e-3 0.20992 0 0.29201 7e-3 0.0879 0.0917 0.1182 0.0973 0.19466 6e-3 0.082-0.1059 0.17824-0.0973 0.24335 0.0197 0.17832 0.20935 0.32248 0.24333 0.48665 0.0283 0.13021 0.0655 0.42833 0.0486 0.58402-0.0109 0.082-0.0374 0.20144-0.0486 0.29201-1e-3 0.0188-6.1e-4 0.0342 0 0.0517 1e-3 0.0246 0.0456 0.0203 0.0456 0.0456 0 0.0252-0.0433 0.0209-0.0456 0.0457 2.2e-4 0.0167 3e-3 0.0343 0 0.0517-9e-3 -6e-3 -0.0179-0.0182-0.0274-0.0243-7.4e-4 4e-3 -7e-3 4e-3 -9e-3 9e-3 0.0296 0.0196 0.0523 0.0603 0.082 0.0791 0.70509 0.44639 1.45463 0.83138 2.24172 1.14977-3e-3 -6e-3 4e-3 -0.0436 0-0.0456 0.14717-0.0623 0.42776 0.10933 0.53533-0.0973 0.0541-0.0991-0.0709-0.29025 0-0.38935 0.0509-0.0679 0.38194-0.12909 0.48668-0.1459 0.15013-0.0255 0.30439 4e-3 0.38935-0.0486 0.0935-0.0595 0.21165-0.21384 0.19465-0.38933-7e-3 -0.082-0.081-0.12118-0.14592-0.19468-0.0537-0.0623-0.0125-0.13797-0.0486-0.19466-0.0679-0.0991-0.16636-0.14748-0.19468-0.292 0.20387-0.0396 0.48423 0.22813 0.77868 0.14592 0.13877-0.0397 0.37288-0.30782 0.43801-0.43801 0.0197-0.0397-0.0226-0.19514 0-0.24333 0.0255-0.0536 0.0888-0.0692 0.0973-0.0973 0.0197-0.0764-0.017-0.0981 0-0.14592 0.0509-0.14436 0.20705-0.23595 0.29202-0.34068 0.0651-0.0792 0.13517-0.16124 0.19466-0.24334 0.0679-0.0879 0.10083-0.1182 0.14593-0.19467 0.0426-0.25758-0.15963-0.45488-0.0973-0.68132 0.0679-0.25475 0.43503-0.4193 0.68135-0.53536 0.0849-0.0397 0.17255-0.12053 0.24334-0.14591 0.16986-0.0595 0.37677-0.0408 0.53534-0.0973 0.26615-0.0962 0.35641-0.38927 0.48666-0.63268 0.0623-0.11321 0.13472-0.20991 0.14593-0.292 0.0109-0.0738-0.014-0.15836 0-0.24333 0.014-0.0849 0.0262-0.14997 0.0486-0.24334 0.0312-0.12177 0.0486-0.3508 0.0486-0.48667 0-0.11321-0.0458-0.14141-0.0486-0.24333-0.0197-0.36798 0.10747-0.38305 0.24335-0.58401 0.0679-0.099 0.0981-0.26992 0.14592-0.34068 0.22934-0.33967 0.61233-0.50685 0.584-1.02201-0.0109-0.16984-0.0701-0.53021-0.19465-0.58401-0.0709-0.0312-0.23592-9e-3 -0.34068-0.0486-0.33411-0.12458-0.57644-0.50704-0.92469-0.53534-0.0738-3e-3 -0.11258 3e-3 -0.19467 0-0.13596-3e-3 -0.28511-0.1291-0.438-0.14591-0.0962-0.0109-0.28405 0.0283-0.34067 0-0.0879-0.0426-0.0753-0.19523-0.14592-0.24334-0.0567-0.0397-0.15559-0.0661-0.24333-0.0973-0.13876-0.0536-0.22796-0.086-0.38934-0.0973-0.0509-3e-3 -0.18677 7e-3 -0.24333 0-0.0879-0.014-0.16124-0.0951-0.24334-0.14592-0.10186-0.0623-0.15216-0.10685-0.19467-0.19467 0.0935-0.30571-0.22971-0.35703-0.29201-0.53535-0.0283-0.082 0.0284-0.2184 0-0.29199-0.0368-0.10482-0.12723-0.15559-0.24334-0.24335-0.20384-0.15852-0.3897-0.30388-0.68134-0.34065-0.13019-0.014-0.28227 0.0109-0.438 0-0.16421-0.0109-0.36211-0.10186-0.48668-0.24334-0.11882-0.13892-0.13845-0.27563-0.24325-0.34072-0.0991-0.0623-0.27273-0.0811-0.34067-0.14593-0.0312-0.0283-0.0203-0.0811-0.0486-0.14592-0.0509-0.10206-0.15964-0.11883-0.0973-0.24334-0.11321-0.0567-0.0728 0.0713-0.19467 0.0486-0.11042-0.15574-0.18886-0.2428-0.438-0.19468-0.11322 0.0226-0.20759 0.19185-0.34067 0.19468-0.11043 3e-3 -0.19627-0.17487-0.34067-0.19468-0.11043-0.014-0.26423 0.11432-0.34067 0.0973-0.12178-0.0225-0.133-0.16962-0.24334-0.24334-0.082-0.054-0.24671-0.19748-0.29201-0.19467-0.14155 3e-3 -0.24265 0.29939-0.43801 0.19467-0.0962-0.12179 0.16199-0.1302 0.0486-0.24334-0.0849-0.0849-0.12662 3e-3 -0.19468 0.0486-0.0792 0.0536-0.15556 0.11492-0.24333 0.14592-0.19536 0.0738-0.33378 0.067-0.48667 0.14591-0.14156 0.0738-0.16123 0.19632-0.24333 0.34068-0.0651 0.11898-0.19292 0.28633-0.29201 0.292-0.11898 7e-3 -0.23307-0.14935-0.34066-0.19467-0.3256-0.14156-0.50971 0.0945-0.77868 0.0973-0.24915 3e-3 -0.59533-0.39771-0.58401-0.63268 7e-3 -0.14436 0.0804-0.35701 0.0973-0.53533 0.014-0.14156 0.14327-0.25912 0.14593-0.38934 3e-3 -0.17266-0.2761-0.32085-0.38934-0.34067-0.26615-0.048-0.62173 0.11899-0.92468 0-0.0567-0.0962 0.11198-0.14998 0.14593-0.24333 0.0197-0.0536-0.0197-0.0866 0-0.14593 0.0339-0.0906 0.15216-0.14717 0.19466-0.24334 0.0312-0.0738 0.0175-0.2014 0.0486-0.292 0.0368-0.10206 0.13735-0.16973 0.14593-0.24333 0.0109-0.0962-0.0698-0.22972-0.14593-0.29201z" color="#000000" fill="#1272a5" stroke-width="1.55736"/>
    </g>
</svg>
