<svg viewBox="0 0 16 16" xmlns="http://www.w3.org/2000/svg">
    <style type="text/css" id="current-color-scheme">
        .ColorScheme-Text {
            color:#232629;
        }
    </style>
    <g class="ColorScheme-Text" fill="currentColor">
        <path d="m9.9960938 8 .0039062 7 2-3h3l-5.0019531-4z"/>
        <path d="m7 7.0058594v4.9999996h2v-4.9999996z"/>
        <path d="m7 4.0058594v1.9941406h2v-1.9941406z"/>
        <path d="m8 2c-3.3137085 0-6 2.6862915-6 6 0 3.313708 2.6862915 6 6 6 .3415702 0 .6740174-.03501 1-.08984v-1.009769c-.3230704.06557-.6575793.099609-1 .099609-2.7614237 0-5-2.238576-5-5 0-2.7614237 2.2385763-5 5-5 2.761424 0 5 2.2385763 5 5 0 .3302679-.0346.6524578-.0957.9648438l.874998.644531c.03834-.1317338.07184-.264675.09961-.4003906.079922-.3905858.121092-.7947706.121092-1.2089842 0-3.3137085-2.686292-6-6-6z"/>
    </g>
</svg>
