<svg height="16" width="16" xmlns="http://www.w3.org/2000/svg" xmlns:xlink="http://www.w3.org/1999/xlink"><linearGradient id="a" gradientTransform="matrix(.72727 0 0 .68966 -383.84 -497.87)" gradientUnits="userSpaceOnUse" x2="0" y1="785.71002" y2="727.71002"><stop offset="0" stop-color="#8e44ad"/><stop offset="1" stop-color="#9b59b6"/></linearGradient><linearGradient id="b" gradientUnits="userSpaceOnUse" x1="388.57" x2="398.57" y1="504.8" y2="514.8"><stop offset="0" stop-color="#383e51"/><stop offset="1" stop-color="#655c6f" stop-opacity="0"/></linearGradient><linearGradient id="c" gradientTransform="matrix(.4375 0 0 .4375 381.56437 497.75981)" gradientUnits="userSpaceOnUse" x2="0" y1="32" y2="16"><stop offset="0" stop-color="#b985ce"/><stop offset="1" stop-color="#e2cdeb"/></linearGradient><g transform="translate(-384.57 -499.8)"><path d="m2 0v16h12v-10.5l-5.5-5.5z" fill="url(#a)" transform="translate(384.57 499.8)"/><path d="m398.57 503.8v-4h-4z" fill="#713e88"/><path d="m386.57001 514.79999h11.999992v1.000012h-11.999992z" fill="#2e3132" fill-opacity=".294"/><path d="m396.57 504.8h-8v7l3 3h7v-8z" fill="url(#b)" fill-rule="evenodd" opacity=".2"/><path d="m388.57 504.8v7h8v-7m-7 1h6v1h-6zm0 2h6v1h-6zm0 2h6v1h-6z" fill="url(#c)" stroke-width=".875"/></g></svg>