<svg height="16" width="16" xmlns="http://www.w3.org/2000/svg" xmlns:xlink="http://www.w3.org/1999/xlink"><linearGradient id="a" gradientTransform="matrix(.66725341 0 0 .68966 34.383476 1.931)" gradientUnits="userSpaceOnUse" x2="0" y1="785.71002" y2="727.71002"><stop offset="0" stop-color="#22a7f0"/><stop offset="1" stop-color="#19b5fe"/></linearGradient><linearGradient id="b" gradientTransform="translate(396.57 514.46761)" gradientUnits="userSpaceOnUse" x2="0" y1="20" y2="4"><stop offset="0" stop-color="#60c0f4"/><stop offset="1" stop-color="#b9e9ff"/></linearGradient><linearGradient id="c" gradientUnits="userSpaceOnUse" x1="16" x2="32" y1="16" y2="32"><stop offset="0" stop-color="#383e51"/><stop offset="1" stop-color="#655c6f" stop-opacity="0"/></linearGradient><g transform="matrix(.37486677 0 0 .37486677 -145.65985 -188.85255)"><path d="m393.89954 503.78579v42.68183h32.01138v-28.00996l-14.94465-14.67187z" fill="url(#a)" stroke-width=".95785"/><path d="m36.00569 17.32386-21.340917-.000003v2.667615l2.667615 2.667614-2.667615 2.667614 2.667615 2.667615v2.667614h-2.667615l2.667615 2.667615h-2.667615v2.667614l10.670458 10.670458h16.005687v-24.00853z" fill="url(#c)" fill-rule="evenodd" opacity=".2" transform="translate(384.57 499.8)"/><path d="m393.9024 543.79999h32.008526v2.667611h-32.008526z" fill="#2e3132" fill-opacity=".294" stroke-width="1.6335"/><path d="m399.23477 517.12386v2.66761h21.34092v-2.66761zm0 5.33523v2.66761h16.00569v-2.66761zm0 5.33522v2.66762h2.66762v-2.66762zm0 5.33523v2.66762h13.33808v-2.66762zm16.00569 0v2.66762h2.66761v-2.66762z" fill="url(#b)"/></g><path d="m14 0v4l-4-4z" fill="#2584b7"/></svg>