<svg height="16" viewBox="0 0 16 16" width="16" xmlns="http://www.w3.org/2000/svg" xmlns:xlink="http://www.w3.org/1999/xlink"><linearGradient id="a" gradientUnits="userSpaceOnUse" x1="4" x2="16" y1="3.99999" y2="16"><stop offset="0"/><stop offset="1" stop-opacity="0"/></linearGradient><linearGradient id="b" gradientUnits="userSpaceOnUse" x1="-1.14285" x2="8.57143" y1="-1.71429" y2="9.14285"><stop offset="0" stop-color="#fff"/><stop offset="1" stop-color="#fff" stop-opacity="0"/></linearGradient><path d="m15 .0000002h-14c-.552284 0-1 .447715-1 1v13.9999998c0 .5523.447715 1 1 1h14c.5523 0 1-.4477 1-1v-13.9999998c0-.552285-.4477-1-1-1z" fill="#2d3033"/><path d="m15 .0000002h-14c-.552285 0-1 .447715-1 1v13.9999998c0 .5523.447715 1 1 1h14c.5523 0 1-.4477 1-1v-13.9999998c0-.552285-.4477-1-1-1z" fill="url(#b)" opacity=".276"/><path d="m12.5 4.5000002-1.0714 1.2142802-9.4285999-.21428 4.4999998 4.4999996-4.4999998.5 4.9999998 5.5h8.0000001c.5523 0 1-.4477 1-1v-6.9999999z" fill="url(#a)" opacity=".4"/><path d="m2.5000101 5.0000004c-.27615 0-.50001.22386-.50001.5 0 .27615.22386.50001.50001.50001l8.4999899-.00009v-.99986z" fill="#3daee9"/><path d="m11.5 7.0000001c.8284 0 1.5-.6715697 1.5-1.4999997 0-.8284302-.6716-1.5000002-1.5-1.5000002s-1.5000001.67157-1.5000001 1.5000002c0 .82843.6716001 1.4999997 1.5000001 1.4999997z" fill="#fafafa"/><path d="m11 5.0000704v.99985l2.5.00006c.2762 0 .5-.21632.5-.49244 0-.27613-.2238-.50748-.5-.50748z" fill="#fcfcfc" opacity=".2"/><path d="m2.5000001 10c-.27614 0-.5.2239-.5.5 0 .2762.22386.5.5.5l3.5-.0001v-.9998z" fill="#3daee9"/><path d="m6.4999999 12c.82843 0 1.5-.6716 1.5-1.5 0-.8284299-.67157-1.4999999-1.5-1.4999999-.8284298 0-1.4999998.67157-1.4999998 1.4999999 0 .8284.67157 1.5 1.4999998 1.5z" fill="#fafafa"/><path d="m6.0000001 10.0002v.9998h7.4999999c.2761 0 .5-.2238.5-.5 0-.2761-.2239-.5-.5-.5z" fill="#fcfcfc" opacity=".2"/><path d="m1 16c-.554 0-1-.446-1-1v-1c0 .554.446 1 1 1h14c.554 0 1-.446 1-1v1c0 .554-.446 1-1 1z" opacity=".3"/><path d="m1 .0000002c-.554 0-1 .44599-1 1v1c0-.55401.446-1 1-1h14c.554 0 1 .44599 1 1v-1c0-.55401-.446-1-1-1z" fill="#fff" opacity=".3"/></svg>