<svg id="svg15" version="1.1" viewBox="0 0 96 96" xmlns="http://www.w3.org/2000/svg" xmlns:xlink="http://www.w3.org/1999/xlink">
    <defs id="defs5455">
        <linearGradient id="linearGradient4178" x2="0" y1="541.79797" y2="499.78421" gradientTransform="matrix(1.4999996,0,0,1.4995115,-576.85701,-725.43213)" gradientUnits="userSpaceOnUse">
            <stop id="stop4174-6" stop-color="#3e3e3e" offset="0"/>
            <stop id="stop4176-6" stop-color="#494949" offset="1"/>
        </linearGradient>
    </defs>
    <g id="layer1" transform="translate(-384.57144,-483.798)">
        <path id="rect4180" transform="translate(384.57144,483.798)" d="m6 9-1.17e-5 20.999996h84l1.2e-5 -14.999996h-42l-6-6z" fill="#2d2d2d" stroke-width="1.5"/>
        <path id="rect4113" transform="translate(384.57144,483.798)" d="M 38.999988,23.999996 33,30 H 5 V 87 H 91 V 24 Z" fill="url(#linearGradient4178)" stroke-width="1.5"/>
        <g fill-opacity=".235294" stroke-width="1.5">
            <path id="path4224-1" d="m389.57143 513.798v1h29l4.99999-6.99983-6.00001 6z" fill="#fff" fill-rule="evenodd"/>
            <path id="path4228-0" d="m390.57143 512.798v1.00017h26.99998l6.00002-6.00017-7 5z" fill-rule="evenodd"/>
            <path id="path4151-2" transform="translate(384.57144,483.798)" d="m4.9999883 85.999996v1l86-0.01628v-0.983722z"/>
            <path id="path4196" transform="translate(384.57144,483.798)" d="M 42,9 46.999988,15.999996 90,16 V 15 H 48 Z" fill="#fff" fill-rule="evenodd"/>
        </g>
        <path id="path855" transform="translate(384.57144,483.798)" d="m47.90625 41c-3.65287 0.0483-6.654378 2.897549-6.892578 6.542969l-0.001953 1.457031h1.001953l0.0039-1.457031c0.238904-3.12727 2.846048-5.542889 5.982428-5.542969 3.13562 1e-3 5.741619 2.416449 5.980469 5.542969l0.019531 8.457031h-18v15h24v-15h-5l-0.01367-8.457031c-0.240864-3.68119-3.29728-6.543639-6.98633-6.542969-0.0312-2.1e-4 -0.06255-2.1e-4 -0.09375 0zm-10.90625 16h22v13h-22z" fill="#7a7a7a" stroke-width="1.11341"/>
        <path id="rect4179-71-2" d="m394.57143 513.798 1e-5 4h5l-1e-5 -4zm10 0 1e-5 4h5l-1e-5 -4zm9.99999 0 2e-5 4h5v-5h-1.00001l-1 1zm5.00002-1h5v-5h-1.00001l-4 4zm5 0v5h5v-5zm5 0h5v-5h-5zm5 0v5h5v-5zm5 0h5v-5h-5zm5 0v5h5v-5zm5 0h5v-5h-5zm5 0v5h5v-5zm5 0h5v-5h-5zm5 0v5h5v-5zm5 0h5v-5h-5zm5 0v5h1v-5zm0 5h-5v5h5zm-10 0h-5v5h5zm-10 0h-5v5h5zm-10 0h-5v5h5zm-10 0h-5v5h5zm-10 0h-5v5h5zm-10 0h-5v5h5zm-10 0h-5v5h5zm-10 0h-5v5h5z" fill="#5f5f5f" opacity=".6"/>
    </g>
</svg>
