<svg version="1.1" viewBox="0 0 96 96" xmlns="http://www.w3.org/2000/svg">
    <defs>
        <linearGradient id="a" x2="0" y1="541.79797" y2="499.78421" gradientTransform="matrix(1.4999996,0,0,1.4995115,-576.85701,-725.43213)" gradientUnits="userSpaceOnUse">
            <stop stop-color="#3daee9" offset="0"/>
            <stop stop-color="#6cc1ef" offset="1"/>
        </linearGradient>
    </defs>
    <g transform="translate(-384.57144,-483.798)">
        <g stroke-width="1.5">
            <path transform="translate(384.57144,483.798)" d="m6 9-1.17e-5 20.999996h84l1.2e-5 -14.999996h-42l-6-6z" fill="#147eb8"/>
            <path transform="translate(384.57144,483.798)" d="M 38.999988,23.999996 33,30 H 5 V 87 H 91 V 24 Z" fill="url(#a)"/>
            <g fill-opacity=".235294">
                <path d="m389.57143 513.798v1h29l4.99999-6.99983-6.00001 6z" fill="#fff" fill-rule="evenodd"/>
                <path d="m390.57143 512.798v1.00017h26.99998l6.00002-6.00017-7 5z" fill-rule="evenodd"/>
                <path transform="translate(384.57144,483.798)" d="m4.9999883 85.999996v1l86-0.01628v-0.983722z"/>
                <path transform="translate(384.57144,483.798)" d="M 42,9 46.999988,15.999996 90,16 V 15 H 48 Z" fill="#fff" fill-rule="evenodd"/>
            </g>
        </g>
        <path transform="translate(384.57144,483.798)" d="m 47.90625,41 c -3.65287,0.0483 -6.654378,2.897549 -6.892578,6.542969 L 41,56 H 36 V 71 H 60 V 56 H 55 L 54.98633,47.542969 C 54.745468,43.861779 51.68905,40.99933 48,41 c -0.0312,-2.1e-4 -0.06255,-2.1e-4 -0.09375,0 z M 48,42 c 3.13562,10e-4 5.741619,2.416449 5.980469,5.542969 L 54,56 H 42 l 0.01758,-8.457031 C 42.256478,44.415699 44.86362,42.00008 48,42 Z" fill="#1272a5" stroke-width="1.11341"/>
    </g>
</svg>
