<svg height="16" width="16" xmlns="http://www.w3.org/2000/svg" xmlns:xlink="http://www.w3.org/1999/xlink"><linearGradient id="a" gradientTransform="matrix(.72727 0 0 .68966 .727 1.931)" gradientUnits="userSpaceOnUse" x2="0" y1="785.71002" y2="727.71002"><stop offset="0" stop-color="#2a2c2f"/><stop offset="1" stop-color="#424649"/></linearGradient><linearGradient id="b" gradientUnits="userSpaceOnUse" x2="0" y1="531.79999" y2="515.79999"><stop offset="0" stop-color="#a5a9af"/><stop offset="1" stop-color="#dadcde"/></linearGradient><linearGradient id="c" gradientUnits="userSpaceOnUse" x1="16.00001" x2="32.00001" y1="15.99999" y2="31.99999"><stop offset="0" stop-color="#383e51"/><stop offset="1" stop-color="#655c6f" stop-opacity="0"/></linearGradient><g transform="matrix(.4 0 0 .4 -155.228 -201.52)"><path d="m393.07 503.8v40h30v-26.25l-13.75-13.75z" fill="url(#a)"/><path d="m393.07001 541.29999h29.999992v2.500012h-29.999992z" fill="#2e3132" fill-opacity=".294"/><path d="m423.07 513.8v-10h-8.49-1.51z" fill="#212323"/><path d="m16 16.5v20l7.5 7.5h15v-20l-7.5-7.5z" fill="url(#c)" fill-rule="evenodd" opacity=".2" transform="translate(384.57 499.8)"/><path d="m400.57 516.3v20h10l5-5v-15h-7.02344zm2.5 2.5h10v10h-5v5h-5z" fill="url(#b)"/></g></svg>